<?xml version="1.0" encoding="UTF-8"?>
<!DOCTYPE svg PUBLIC "-//W3C//DTD SVG 1.1//EN" "http://www.w3.org/Graphics/SVG/1.1/DTD/svg11.dtd">
<svg xmlns="http://www.w3.org/2000/svg" version="1.1" width="577px" height="432px" style="shape-rendering:geometricPrecision; text-rendering:geometricPrecision; image-rendering:optimizeQuality; fill-rule:evenodd; clip-rule:evenodd" xmlns:xlink="http://www.w3.org/1999/xlink">
<g><path style="opacity:0.004" fill="#fefffe" d="M 269.5,8.5 C 270.833,9.16667 270.833,9.16667 269.5,8.5 Z"/></g>
<g><path style="opacity:0.004" fill="#fefffe" d="M 426.5,22.5 C 427.833,23.1667 427.833,23.1667 426.5,22.5 Z"/></g>
<g><path style="opacity:0.004" fill="#fefffe" d="M 564.5,22.5 C 565.833,23.1667 565.833,23.1667 564.5,22.5 Z"/></g>
<g><path style="opacity:0.004" fill="#fefffe" d="M 151.5,30.5 C 152.833,31.1667 152.833,31.1667 151.5,30.5 Z"/></g>
<g><path style="opacity:0.004" fill="#fefffe" d="M 322.5,36.5 C 323.833,37.1667 323.833,37.1667 322.5,36.5 Z"/></g>
<g><path style="opacity:0.004" fill="#fefffe" d="M 249.5,40.5 C 250.833,41.1667 250.833,41.1667 249.5,40.5 Z"/></g>
<g><path style="opacity:0.004" fill="#fefffe" d="M 11.5,41.5 C 12.8333,42.1667 12.8333,42.1667 11.5,41.5 Z"/></g>
<g><path style="opacity:0.125" fill="#ddbb8b" d="M 462.5,57.5 C 456.22,54.3599 449.886,51.1932 443.5,48C 421.199,40.6771 398.532,39.5105 375.5,44.5C 378.906,42.891 382.573,41.7244 386.5,41C 398.833,40.3333 411.167,40.3333 423.5,41C 438.053,43.2889 451.053,48.7889 462.5,57.5 Z"/></g>
<g><path style="opacity:0.004" fill="#fefffe" d="M 443.5,44.5 C 444.833,45.1667 444.833,45.1667 443.5,44.5 Z"/></g>
<g><path style="opacity:0.004" fill="#fefffe" d="M 552.5,46.5 C 553.833,47.1667 553.833,47.1667 552.5,46.5 Z"/></g>
<g><path style="opacity:0.004" fill="#fefffe" d="M 461.5,50.5 C 462.833,51.1667 462.833,51.1667 461.5,50.5 Z"/></g>
<g><path style="opacity:0.224" fill="#d7b587" d="M 375.5,44.5 C 367.511,47.9917 359.511,51.8251 351.5,56C 348.883,56.8215 346.216,57.3215 343.5,57.5C 351.805,54.5161 359.805,50.6828 367.5,46C 370.063,44.9207 372.729,44.4207 375.5,44.5 Z"/></g>
<g><path style="opacity:0.004" fill="#fefffe" d="M 77.5,59.5 C 78.8333,60.1667 78.8333,60.1667 77.5,59.5 Z"/></g>
<g><path style="opacity:0.004" fill="#fefffe" d="M 125.5,59.5 C 126.833,60.1667 126.833,60.1667 125.5,59.5 Z"/></g>
<g><path style="opacity:0.157" fill="#e4bd8d" d="M 339.5,58.5 C 332.873,60.261 326.207,62.261 319.5,64.5C 325.472,60.6671 332.139,58.6671 339.5,58.5 Z"/></g>
<g><path style="opacity:1" fill="#f3a440" d="M 423.5,59.5 C 427.853,59.7646 432.187,60.2646 436.5,61C 445.043,65.9165 453.71,70.7498 462.5,75.5C 463.127,76.4168 463.461,77.4168 463.5,78.5C 463.5,79.5 463.5,80.5 463.5,81.5C 461.143,81.3367 458.81,81.5034 456.5,82C 455.252,83.9586 453.585,85.4586 451.5,86.5C 450.345,89.4459 450.179,92.4459 451,95.5C 454.106,101.973 458.273,107.473 463.5,112C 467.803,112.466 471.303,110.966 474,107.5C 476.57,102.342 478.403,97.0087 479.5,91.5C 488,96.9778 496,103.311 503.5,110.5C 509.959,120.18 515.293,130.513 519.5,141.5C 520.918,147.002 523.418,152.002 527,156.5C 528.171,164.508 528.338,172.508 527.5,180.5C 530.424,185.537 529.09,189.37 523.5,192C 524.563,193.188 525.897,193.688 527.5,193.5C 527.808,195.924 527.474,198.257 526.5,200.5C 523.961,197.96 520.961,197.126 517.5,198C 519.301,198.317 519.634,198.984 518.5,200C 519.215,205.677 521.882,206.844 526.5,203.5C 527.287,204.242 527.953,205.075 528.5,206C 527.204,208.761 526.037,211.595 525,214.5C 524.329,215.252 523.496,215.586 522.5,215.5C 520.021,212.28 518.188,208.613 517,204.5C 515.938,203.101 514.605,202.101 513,201.5C 507.728,201.615 503.228,203.448 499.5,207C 498.552,207.483 497.552,207.649 496.5,207.5C 495.361,210.004 494.694,212.67 494.5,215.5C 492.544,221.412 491.877,227.745 492.5,234.5C 492.708,236.92 492.374,239.253 491.5,241.5C 492.631,242.604 493.465,242.271 494,240.5C 494.333,241.5 494.667,242.5 495,243.5C 497.133,244.255 498.8,245.588 500,247.5C 502.33,244.818 502.83,245.151 501.5,248.5C 497.395,249.15 493.395,248.483 489.5,246.5C 486.562,247.575 483.562,247.741 480.5,247C 479.929,245.795 479.262,244.628 478.5,243.5C 474.946,244.769 471.946,246.769 469.5,249.5C 470.167,249.833 470.833,250.167 471.5,250.5C 470.485,251.681 469.319,252.681 468,253.5C 465.244,252.305 463.744,253.305 463.5,256.5C 462.022,256.238 460.689,256.571 459.5,257.5C 458.324,260.449 456.991,263.282 455.5,266C 456.428,266.388 457.095,267.055 457.5,268C 457.172,270.025 457.006,272.191 457,274.5C 456.667,274.167 456.333,273.833 456,273.5C 454.333,275.5 452.667,277.5 451,279.5C 450.581,278.328 449.915,277.328 449,276.5C 448.099,281.215 446.432,285.548 444,289.5C 444.07,295.733 441.903,300.899 437.5,305C 438.654,305.914 438.487,306.747 437,307.5C 432.084,306.693 427.75,304.693 424,301.5C 423.667,301.833 423.333,302.167 423,302.5C 422.581,301.328 421.915,300.328 421,299.5C 419.68,299.799 418.18,299.966 416.5,300C 415.663,301.011 415.33,302.178 415.5,303.5C 412.05,302.756 410.384,304.09 410.5,307.5C 409.883,307.611 409.383,307.944 409,308.5C 406.404,320.472 411.238,326.305 423.5,326C 421.279,326.862 420.112,328.029 420,329.5C 418.374,328.982 416.707,328.648 415,328.5C 411.92,329.954 408.754,331.287 405.5,332.5C 404,332.547 403,331.881 402.5,330.5C 396.528,329.67 390.528,329.17 384.5,329C 383.118,323.294 380.451,322.127 376.5,325.5C 374.72,323.556 372.553,322.223 370,321.5C 368.395,322.101 367.062,323.101 366,324.5C 364.103,322.984 361.936,322.317 359.5,322.5C 351.813,320.147 344.813,316.48 338.5,311.5C 334.442,308.567 334.776,308.067 339.5,310C 345.705,310.984 351.705,310.317 357.5,308C 365.821,298.349 363.821,292.182 351.5,289.5C 351.5,288.5 351.5,287.5 351.5,286.5C 348.482,286.335 345.482,286.502 342.5,287C 341.745,289.133 340.412,290.8 338.5,292C 331.21,292.769 328.543,296.602 330.5,303.5C 328.833,303.5 327.167,303.5 325.5,303.5C 325.165,299.489 323.165,298.489 319.5,300.5C 318.533,299.194 317.199,298.527 315.5,298.5C 315.5,297.5 315.5,296.5 315.5,295.5C 314.448,295.649 313.448,295.483 312.5,295C 307.315,290.156 302.481,284.989 298,279.5C 291.424,268.161 285.591,256.495 280.5,244.5C 278.232,236.195 276.065,227.861 274,219.5C 273.026,207.424 273.526,195.424 275.5,183.5C 275.66,181.645 274.993,180.312 273.5,179.5C 272.902,174.187 272.569,168.854 272.5,163.5C 273.461,167.335 274.295,171.335 275,175.5C 274.82,163.108 276.82,151.108 281,139.5C 283.955,133.86 286.955,128.193 290,122.5C 294.305,116.855 298.638,111.188 303,105.5C 303.333,104.167 303.667,102.833 304,101.5C 307.915,99.2545 310.748,96.0878 312.5,92C 314.405,90.5787 316.405,89.412 318.5,88.5C 319.833,88.5 321.167,88.5 322.5,88.5C 322.198,91.0593 322.532,93.3926 323.5,95.5C 324.641,98.5047 324.641,101.671 323.5,105C 324.222,110.549 327.222,114.049 332.5,115.5C 350.662,119.524 357.329,112.524 352.5,94.5C 350.833,92.1667 348.833,90.1667 346.5,88.5C 346.167,87.8333 345.833,87.1667 345.5,86.5C 342.299,84.7397 338.633,83.9064 334.5,84C 337.33,79.5126 341.164,77.346 346,77.5C 351.32,73.6049 356.487,73.9382 361.5,78.5C 358.268,81.1441 357.934,83.9775 360.5,87C 364.118,87.966 367.451,87.466 370.5,85.5C 372.095,82.3199 373.095,78.9865 373.5,75.5C 370.859,76.2631 368.192,76.4298 365.5,76C 364.692,75.6924 364.025,75.1924 363.5,74.5C 364.689,73.5713 366.022,73.238 367.5,73.5C 366.425,69.062 368.092,67.062 372.5,67.5C 372.36,65.8762 373.027,64.7096 374.5,64C 376.902,63.1859 379.235,63.3526 381.5,64.5C 379.331,68.2901 378.998,72.2901 380.5,76.5C 381.417,77.1272 382.417,77.4606 383.5,77.5C 383.077,80.2882 384.077,82.2882 386.5,83.5C 392.25,81.8607 397.75,79.8607 403,77.5C 404.566,78.0606 405.899,77.3939 407,75.5C 407.667,72.1667 407.667,68.8333 407,65.5C 402.102,63.3636 396.268,62.0302 389.5,61.5C 390.665,60.4164 391.998,59.5831 393.5,59C 396.957,58.5558 400.29,59.0558 403.5,60.5C 404.994,60.2908 406.161,59.6241 407,58.5C 410.238,57.9886 413.404,58.6553 416.5,60.5C 418.747,59.6258 421.08,59.2924 423.5,59.5 Z"/></g>
<g><path style="opacity:0.004" fill="#fefffe" d="M 492.5,64.5 C 493.833,65.1667 493.833,65.1667 492.5,64.5 Z"/></g>
<g><path style="opacity:0.255" fill="#e0bb89" d="M 239.5,78.5 C 241.5,80.1667 243.5,81.8333 245.5,83.5C 238.553,80.0266 231.553,76.5266 224.5,73C 211.42,67.2646 197.754,64.7646 183.5,65.5C 173.441,65.4598 163.441,66.1264 153.5,67.5C 183.579,59.8433 212.246,63.51 239.5,78.5 Z"/></g>
<g><path style="opacity:0.063" fill="#dfc895" d="M 470.5,63.5 C 472.909,64.7007 474.909,66.3674 476.5,68.5C 473.268,68.2283 471.268,66.5616 470.5,63.5 Z"/></g>
<g><path style="opacity:1" fill="#d99044" d="M 269.5,111.5 C 268.696,114.442 267.362,117.109 265.5,119.5C 261.713,126.084 258.713,133.084 256.5,140.5C 253.358,142.661 250.025,142.994 246.5,141.5C 237.428,138.425 233.094,132.092 233.5,122.5C 232.307,122.03 231.64,121.03 231.5,119.5C 232.079,117.385 232.912,115.385 234,113.5C 238.51,111.11 243.01,109.11 247.5,107.5C 262.465,108.704 263.465,105.537 250.5,98C 247.211,97.1184 243.877,96.4517 240.5,96C 244.376,93.8724 244.376,91.5391 240.5,89C 235.5,86 230.5,83 225.5,80C 220.069,78.7809 214.736,77.2809 209.5,75.5C 208.554,75.9867 207.554,76.3201 206.5,76.5C 202.4,74.5126 198.067,73.3459 193.5,73C 187.868,73.0879 182.368,72.9212 177,72.5C 170.64,73.5018 164.306,74.5018 158,75.5C 157.439,74.9781 156.772,74.6448 156,74.5C 153.5,75.3333 151,76.1667 148.5,77C 146.561,77.9078 145.561,79.4078 145.5,81.5C 140.846,79.3319 136.846,80.1653 133.5,84C 131.527,84.4955 129.527,84.6621 127.5,84.5C 137.676,77.5973 149.009,73.0973 161.5,71C 175.87,70.1307 190.203,70.464 204.5,72C 211.754,73.128 218.754,75.128 225.5,78C 231.21,81.8548 237.21,85.1881 243.5,88C 252.063,96.0688 260.73,103.902 269.5,111.5 Z"/></g>
<g><path style="opacity:0.18" fill="#d7b582" d="M 141.5,71.5 C 135.858,74.5616 130.191,77.7283 124.5,81C 121.607,82.1488 118.607,82.6488 115.5,82.5C 123.091,79.7941 130.424,76.2941 137.5,72C 138.793,71.51 140.127,71.3433 141.5,71.5 Z"/></g>
<g><path style="opacity:0.004" fill="#fefffe" d="M 544.5,81.5 C 545.833,82.1667 545.833,82.1667 544.5,81.5 Z"/></g>
<g><path style="opacity:0.992" fill="#99713c" d="M 462.5,57.5 C 465.563,59.0252 468.23,61.0252 470.5,63.5C 471.268,66.5616 473.268,68.2283 476.5,68.5C 480.872,72.8744 485.539,76.8744 490.5,80.5C 493.814,85.0092 498.148,88.3425 503.5,90.5C 508.5,94.8333 513.167,99.5 517.5,104.5C 524.738,119.979 532.738,134.979 541.5,149.5C 542.887,151.877 543.721,154.543 544,157.5C 545.425,176.817 546.592,196.15 547.5,215.5C 547.368,229.164 544.701,242.164 539.5,254.5C 540.284,247.748 541.618,241.082 543.5,234.5C 544.449,209.123 543.615,183.79 541,158.5C 538.763,153.356 537.096,148.023 536,142.5C 535.333,143.833 534.667,143.833 534,142.5C 531.359,138.09 529.193,133.424 527.5,128.5C 526.372,127.738 525.205,127.071 524,126.5C 523.08,123.899 522.413,121.232 522,118.5C 519.098,114.131 516.764,109.465 515,104.5C 512.872,102.193 510.372,100.526 507.5,99.5C 507.5,98.5 507.5,97.5 507.5,96.5C 506.448,96.6495 505.448,96.4828 504.5,96C 497.115,89.7986 489.448,83.9652 481.5,78.5C 478.141,76.1395 475.474,73.1395 473.5,69.5C 467.595,67.4159 463.928,63.4159 462.5,57.5 Z"/></g>
<g><path style="opacity:0.129" fill="#e1c195" d="M 115.5,82.5 C 107.418,85.358 99.0843,87.6913 90.5,89.5C 92.3854,87.6885 94.7187,86.5218 97.5,86C 103.58,85.1456 109.58,83.9789 115.5,82.5 Z"/></g>
<g><path style="opacity:1" fill="#f3a440" d="M 185.5,80.5 C 196.528,82.2669 207.528,84.7669 218.5,88C 225.828,91.9905 233.161,95.9905 240.5,100C 243.06,102.39 245.394,104.89 247.5,107.5C 243.01,109.11 238.51,111.11 234,113.5C 232.912,115.385 232.079,117.385 231.5,119.5C 231.64,121.03 232.307,122.03 233.5,122.5C 233.094,132.092 237.428,138.425 246.5,141.5C 248.428,143.113 250.762,144.113 253.5,144.5C 254.469,159.124 253.469,173.624 250.5,188C 249.525,190.578 248.359,193.078 247,195.5C 246.095,204.159 245.762,212.826 246,221.5C 247,222.167 248,222.833 249,223.5C 250.275,230.152 251.442,236.818 252.5,243.5C 253.333,244.5 254.167,245.5 255,246.5C 257.132,253.895 259.465,261.228 262,268.5C 263.353,269.685 264.52,271.019 265.5,272.5C 266.377,278.128 268.044,283.462 270.5,288.5C 268.842,289.828 267.009,290.828 265,291.5C 263.213,290.437 261.379,289.937 259.5,290C 260.357,290.689 261.023,291.522 261.5,292.5C 260.086,293.465 259.253,294.465 259,295.5C 257.278,295.389 257.112,294.889 258.5,294C 257.874,293.25 257.374,292.416 257,291.5C 254.871,294.001 254.371,296.668 255.5,299.5C 253.326,299.92 251.326,299.92 249.5,299.5C 249.167,299.833 248.833,300.167 248.5,300.5C 249.376,301.251 250.376,301.751 251.5,302C 249.899,302.273 248.399,302.773 247,303.5C 246.667,303.167 246.333,302.833 246,302.5C 244.684,303.974 243.684,305.641 243,307.5C 242.667,306.833 242.333,306.167 242,305.5C 241.333,306.833 240.667,308.167 240,309.5C 239.333,310.833 238.667,310.833 238,309.5C 233.984,317.531 229.984,325.531 226,333.5C 225.333,335.5 225.333,337.5 226,339.5C 226.333,338.833 226.667,338.167 227,337.5C 228.717,341.204 228.551,344.704 226.5,348C 227.337,349.011 227.67,350.178 227.5,351.5C 225.255,353.361 222.588,354.361 219.5,354.5C 219.915,356.747 220.582,358.914 221.5,361C 221.357,363.151 220.357,364.818 218.5,366C 219,366.5 219.5,367 220,367.5C 220.626,370.863 220.959,374.196 221,377.5C 219.667,376.167 218.333,376.167 217,377.5C 215.352,376.283 213.519,375.45 211.5,375C 214.124,372.213 216.124,369.046 217.5,365.5C 217.068,362.819 215.734,360.819 213.5,359.5C 206.425,354.947 198.759,352.78 190.5,353C 184.182,358.62 182.682,365.453 186,373.5C 186.333,373.167 186.667,372.833 187,372.5C 188.397,374.07 189.897,375.404 191.5,376.5C 196.493,377.052 201.493,377.885 206.5,379C 202.637,380.819 198.637,382.152 194.5,383C 190.082,383.208 185.749,383.874 181.5,385C 170.546,384.103 159.546,383.269 148.5,382.5C 143.242,380.342 137.909,378.175 132.5,376C 124.924,371.076 116.924,367.076 108.5,364C 107.257,362.846 106.257,361.512 105.5,360C 100.675,358.391 96.0082,356.391 91.5,354C 83.8211,347.982 76.4878,341.649 69.5,335C 51.2092,308.017 40.2092,278.184 36.5,245.5C 36.6934,237.727 37.6934,230.06 39.5,222.5C 39.4439,220.36 38.7773,218.694 37.5,217.5C 37.5,217.167 37.5,216.833 37.5,216.5C 38.2679,215.737 38.7679,214.737 39,213.5C 38.585,196.302 41.9183,179.969 49,164.5C 51.7765,161.282 53.7765,157.615 55,153.5C 61.7564,145.873 67.423,137.54 72,128.5C 77.5107,122.991 83.344,117.824 89.5,113C 97.3869,109.225 105.054,105.225 112.5,101C 120.112,98.8468 127.779,96.8468 135.5,95C 144.884,87.7549 155.55,83.4216 167.5,82C 173.681,81.8276 179.681,81.3276 185.5,80.5 Z"/></g>
<g><path style="opacity:1" fill="#f8cc6f" d="M 391.5,55.5 C 395.514,55.3345 399.514,55.5012 403.5,56C 387.275,56.1653 372.609,60.832 359.5,70C 344.176,73.0044 330.509,79.1711 318.5,88.5C 316.405,89.412 314.405,90.5787 312.5,92C 310.748,96.0878 307.915,99.2545 304,101.5C 303.667,102.833 303.333,104.167 303,105.5C 298.638,111.188 294.305,116.855 290,122.5C 286.955,128.193 283.955,133.86 281,139.5C 276.82,151.108 274.82,163.108 275,175.5C 274.295,171.335 273.461,167.335 272.5,163.5C 271.958,145.328 277.125,128.994 288,114.5C 292.717,111.413 295.717,107.08 297,101.5C 301.292,97.0536 305.459,92.5536 309.5,88C 314.706,84.9028 319.706,81.5694 324.5,78C 331.199,76.1489 337.533,73.4823 343.5,70C 353.672,68.7976 363.005,65.4642 371.5,60C 378.074,57.9313 384.74,56.4313 391.5,55.5 Z"/></g>
<g><path style="opacity:0.204" fill="#dfbe8e" d="M 490.5,80.5 C 495.413,83.1183 499.746,86.4516 503.5,90.5C 498.148,88.3425 493.814,85.0092 490.5,80.5 Z"/></g>
<g><path style="opacity:0.071" fill="#d9bb87" d="M 503.5,90.5 C 506.224,91.3898 508.557,92.8898 510.5,95C 511.781,97.4033 513.614,99.2367 516,100.5C 516.791,101.745 517.291,103.078 517.5,104.5C 513.167,99.5 508.5,94.8333 503.5,90.5 Z"/></g>
<g><path style="opacity:0.239" fill="#c8a97d" d="M 319.5,64.5 C 316.37,67.0704 313.703,70.0704 311.5,73.5C 308.912,74.1936 306.579,75.3602 304.5,77C 293.563,86.7122 283.897,97.5455 275.5,109.5C 273.192,109.035 271.858,107.701 271.5,105.5C 272.458,105.953 273.292,106.619 274,107.5C 284.647,93.0196 297.147,80.3529 311.5,69.5C 314.202,67.78 316.868,66.1134 319.5,64.5 Z"/></g>
<g><path style="opacity:1" fill="#d9954c" d="M 345.5,86.5 C 345.833,87.1667 346.167,87.8333 346.5,88.5C 341.552,87.4409 336.552,87.2742 331.5,88C 329.152,88.3459 327.319,89.5125 326,91.5C 326.85,97.722 327.517,104.055 328,110.5C 333.997,114.397 340.497,115.397 347.5,113.5C 351.503,107.822 353.17,101.489 352.5,94.5C 357.329,112.524 350.662,119.524 332.5,115.5C 327.222,114.049 324.222,110.549 323.5,105C 324.641,101.671 324.641,98.5047 323.5,95.5C 323.523,92.5429 324.523,90.0429 326.5,88C 332.742,86.6304 339.075,86.1304 345.5,86.5 Z"/></g>
<g><path style="opacity:1" fill="#622e0b" d="M 346.5,88.5 C 348.833,90.1667 350.833,92.1667 352.5,94.5C 353.17,101.489 351.503,107.822 347.5,113.5C 340.497,115.397 333.997,114.397 328,110.5C 327.517,104.055 326.85,97.722 326,91.5C 327.319,89.5125 329.152,88.3459 331.5,88C 336.552,87.2742 341.552,87.4409 346.5,88.5 Z"/></g>
<g><path style="opacity:1" fill="#aa774d" d="M 332.5,91.5 C 333.239,91.369 333.906,91.5357 334.5,92C 333.572,92.3879 332.905,93.0546 332.5,94C 332.994,95.4622 333.327,96.9622 333.5,98.5C 332.233,101.705 331.566,105.038 331.5,108.5C 330.351,108.209 329.684,107.376 329.5,106C 331.171,101.587 330.838,97.4208 328.5,93.5C 329.32,91.8888 330.654,91.2222 332.5,91.5 Z"/></g>
<g><path style="opacity:1" fill="#82451f" d="M 331.5,108.5 C 331.566,105.038 332.233,101.705 333.5,98.5C 333.327,96.9622 332.994,95.4622 332.5,94C 332.905,93.0546 333.572,92.3879 334.5,92C 333.906,91.5357 333.239,91.369 332.5,91.5C 336.598,89.0451 340.932,88.8784 345.5,91C 346.167,92 346.833,93 347.5,94C 347.386,99.4561 345.386,104.123 341.5,108C 338.183,108.498 334.85,108.665 331.5,108.5 Z"/></g>
<g><path style="opacity:0.004" fill="#fefffe" d="M 11.5,104.5 C 12.8333,105.167 12.8333,105.167 11.5,104.5 Z"/></g>
<g><path style="opacity:0.004" fill="#fefffe" d="M 25.5,105.5 C 26.8333,106.167 26.8333,106.167 25.5,105.5 Z"/></g>
<g><path style="opacity:1" fill="#da954b" d="M 475.5,76.5 C 482.524,81.8645 489.524,87.1978 496.5,92.5C 495.504,92.4142 494.671,92.7476 494,93.5C 489.878,89.1098 485.211,85.4431 480,82.5C 479.502,85.4816 479.335,88.4816 479.5,91.5C 478.403,97.0087 476.57,102.342 474,107.5C 471.303,110.966 467.803,112.466 463.5,112C 458.273,107.473 454.106,101.973 451,95.5C 450.179,92.4459 450.345,89.4459 451.5,86.5C 453.585,85.4586 455.252,83.9586 456.5,82C 458.81,81.5034 461.143,81.3367 463.5,81.5C 463.5,80.5 463.5,79.5 463.5,78.5C 464.721,79.0283 465.887,79.695 467,80.5C 469.719,79.5562 472.552,79.2229 475.5,79.5C 475.5,78.5 475.5,77.5 475.5,76.5 Z"/></g>
<g><path style="opacity:1" fill="#602c08" d="M 467.5,82.5 C 473.44,81.6129 476.44,84.1129 476.5,90C 475.826,96.0258 474.326,101.859 472,107.5C 470.136,110.207 467.636,111.041 464.5,110C 458.77,104.778 454.437,98.6108 451.5,91.5C 452.219,89.2723 453.552,87.439 455.5,86C 459.531,84.5092 463.531,83.3425 467.5,82.5 Z"/></g>
<g><path style="opacity:1" fill="#824420" d="M 463.5,85.5 C 466.5,85.5 469.5,85.5 472.5,85.5C 471.571,91.312 470.071,96.9786 468,102.5C 467.261,103.574 466.261,104.241 465,104.5C 463.056,103.561 461.389,102.227 460,100.5C 458.294,97.6482 456.461,94.9816 454.5,92.5C 454.876,90.6171 455.876,89.1171 457.5,88C 459.723,87.4338 461.723,86.6005 463.5,85.5 Z"/></g>
<g><path style="opacity:1" fill="#d98f3d" d="M 183.5,80.5 C 165.457,78.6786 148.791,82.512 133.5,92C 110.926,95.962 90.9258,105.295 73.5,120C 65.3059,129.56 57.4726,139.393 50,149.5C 44.5411,160.415 40.2077,171.749 37,183.5C 36.7221,194.501 36.8887,205.501 37.5,216.5C 37.5,216.833 37.5,217.167 37.5,217.5C 36.7784,217.082 36.2784,216.416 36,215.5C 35.6667,215.833 35.3333,216.167 35,216.5C 33.469,203.731 33.969,191.064 36.5,178.5C 36.4493,176.9 36.1159,175.4 35.5,174C 34.2559,173.544 33.4226,174.044 33,175.5C 31.6041,199.826 29.1041,223.993 25.5,248C 25.6667,250.167 25.8333,252.333 26,254.5C 28.3978,257.066 30.0645,260.066 31,263.5C 31.3333,268.167 31.6667,272.833 32,277.5C 34.8572,282.417 36.3572,287.75 36.5,293.5C 29.4776,277.723 25.4776,261.057 24.5,243.5C 25.6685,230.483 27.1685,217.483 29,204.5C 26.8264,174.128 35.8264,147.794 56,125.5C 67.3677,112.788 80.201,101.955 94.5,93C 105.623,90.6092 116.623,87.7758 127.5,84.5C 127.586,85.4959 127.252,86.3292 126.5,87C 125.062,87.2189 123.729,87.7189 122.5,88.5C 124.252,90.0017 126.252,91.0017 128.5,91.5C 134.111,88.446 139.945,85.7793 146,83.5C 158.35,79.5094 170.85,78.5094 183.5,80.5 Z"/></g>
<g><path style="opacity:0.176" fill="#dab987" d="M 90.5,89.5 C 68.356,104.975 50.0226,123.975 35.5,146.5C 39.2919,138.202 44.1252,130.535 50,123.5C 60.6274,111.865 72.1274,101.365 84.5,92C 86.4068,90.878 88.4068,90.0447 90.5,89.5 Z"/></g>
<g><path style="opacity:1" fill="#622f0c" d="M 233.5,122.5 C 233.721,116.769 236.721,113.269 242.5,112C 247.11,110.71 251.777,110.376 256.5,111C 258.723,111.652 259.89,113.152 260,115.5C 260.808,124.791 258.308,132.958 252.5,140C 250.833,140.667 249.167,140.667 247.5,140C 241.421,135.11 236.754,129.277 233.5,122.5 Z"/></g>
<g><path style="opacity:1" fill="#854522" d="M 242.5,114.5 C 245.85,114.335 249.183,114.502 252.5,115C 254.478,117.497 254.978,120.331 254,123.5C 251.946,126.941 250.446,130.608 249.5,134.5C 248.022,134.762 246.689,134.429 245.5,133.5C 242.429,130.352 239.596,127.019 237,123.5C 236.202,121.741 236.369,120.074 237.5,118.5C 239.21,117.113 240.877,115.779 242.5,114.5 Z"/></g>
<g><path style="opacity:1" fill="#dd984c" d="M 99.5,114.5 C 124.097,111.313 131.597,121.313 122,144.5C 120.833,145.667 119.667,146.833 118.5,148C 109.314,149.18 101.147,147.014 94,141.5C 93.7252,134.314 93.0585,127.314 92,120.5C 94.1141,117.879 96.6141,115.879 99.5,114.5 Z"/></g>
<g><path style="opacity:0.004" fill="#fefffe" d="M 5.5,122.5 C 6.83333,123.167 6.83333,123.167 5.5,122.5 Z"/></g>
<g><path style="opacity:0.004" fill="#fefffe" d="M 44.5,122.5 C 45.8333,123.167 45.8333,123.167 44.5,122.5 Z"/></g>
<g><path style="opacity:1" fill="#82441d" d="M 102.5,116.5 C 106.646,115.353 110.98,115.186 115.5,116C 117.431,116.902 119.097,118.069 120.5,119.5C 119.033,118.708 117.7,118.708 116.5,119.5C 118.896,127.059 117.23,133.559 111.5,139C 107.311,139.812 103.311,139.645 99.5,138.5C 100.695,134.904 102.029,131.237 103.5,127.5C 103.113,125.726 102.447,124.059 101.5,122.5C 102.665,121.416 103.998,120.583 105.5,120C 104.906,119.536 104.239,119.369 103.5,119.5C 107.39,118.445 111.39,118.279 115.5,119C 115.043,118.586 114.709,118.086 114.5,117.5C 110.555,116.509 106.555,116.176 102.5,116.5 Z"/></g>
<g><path style="opacity:1" fill="#da8e3e" d="M 475.5,76.5 C 475.5,77.5 475.5,78.5 475.5,79.5C 472.552,79.2229 469.719,79.5562 467,80.5C 465.887,79.695 464.721,79.0283 463.5,78.5C 463.461,77.4168 463.127,76.4168 462.5,75.5C 453.71,70.7498 445.043,65.9165 436.5,61C 432.187,60.2646 427.853,59.7646 423.5,59.5C 417.58,58.218 411.58,56.718 405.5,55C 400.648,54.1849 395.981,54.3516 391.5,55.5C 384.74,56.4313 378.074,57.9313 371.5,60C 363.005,65.4642 353.672,68.7976 343.5,70C 337.533,73.4823 331.199,76.1489 324.5,78C 319.706,81.5694 314.706,84.9028 309.5,88C 305.459,92.5536 301.292,97.0536 297,101.5C 295.717,107.08 292.717,111.413 288,114.5C 277.125,128.994 271.958,145.328 272.5,163.5C 272.569,168.854 272.902,174.187 273.5,179.5C 274.292,180.967 274.292,182.3 273.5,183.5C 271.132,182.631 269.632,180.965 269,178.5C 267.217,180.845 266.217,183.512 266,186.5C 264.98,201.25 265.647,215.916 268,230.5C 269.556,235.099 271.556,239.432 274,243.5C 274.333,242.833 274.667,242.167 275,241.5C 275.72,243.112 275.554,244.612 274.5,246C 277.832,253.25 280.665,260.75 283,268.5C 286.669,273.839 290.335,279.172 294,284.5C 294.494,286.134 294.66,287.801 294.5,289.5C 298.353,290.345 301.019,292.679 302.5,296.5C 303.912,297.806 305.579,298.64 307.5,299C 308.585,301.172 309.919,303.172 311.5,305C 315.332,306.625 319.332,307.625 323.5,308C 322.521,309.779 322.854,311.445 324.5,313C 327.627,313.392 330.627,314.225 333.5,315.5C 335.114,318.272 337.114,320.606 339.5,322.5C 338.167,322.167 336.833,321.833 335.5,321.5C 327.934,317.042 320.267,312.542 312.5,308C 304.579,301.956 297.412,295.123 291,287.5C 277.728,264.296 268.395,239.629 263,213.5C 262.333,206.167 262.333,198.833 263,191.5C 265.881,172.924 267.881,154.257 269,135.5C 270.572,129.829 272.738,124.496 275.5,119.5C 279.953,110.212 285.786,101.878 293,94.5C 302.07,85.4043 311.57,76.9043 321.5,69C 332.734,65.4176 344.068,62.0842 355.5,59C 364.12,53.456 373.453,49.456 383.5,47C 417.464,41.2246 447.131,49.558 472.5,72C 473.386,73.6147 474.386,75.1147 475.5,76.5 Z"/></g>
<g><path style="opacity:0.949" fill="#c3a57f" d="M 517.5,104.5 C 518.794,105.29 519.961,106.29 521,107.5C 527.507,117.843 533.507,128.51 539,139.5C 540.15,142.768 540.984,146.101 541.5,149.5C 532.738,134.979 524.738,119.979 517.5,104.5 Z"/></g>
<g><path style="opacity:1" fill="#612f0d" d="M 102.5,116.5 C 106.555,116.176 110.555,116.509 114.5,117.5C 114.709,118.086 115.043,118.586 115.5,119C 111.39,118.279 107.39,118.445 103.5,119.5C 100.722,119.022 98.7224,120.022 97.5,122.5C 98.9373,124.021 99.604,125.855 99.5,128C 98.4523,131.669 98.4523,135.169 99.5,138.5C 103.311,139.645 107.311,139.812 111.5,139C 117.23,133.559 118.896,127.059 116.5,119.5C 117.7,118.708 119.033,118.708 120.5,119.5C 121.458,119.953 122.292,120.619 123,121.5C 124.642,130.222 122.809,138.055 117.5,145C 109.341,146.607 102.175,144.773 96,139.5C 95.4187,135.81 95.5853,132.144 96.5,128.5C 92.7022,121.626 94.7022,117.626 102.5,116.5 Z"/></g>
<g><path style="opacity:1" fill="#ab774a" d="M 103.5,119.5 C 104.239,119.369 104.906,119.536 105.5,120C 103.998,120.583 102.665,121.416 101.5,122.5C 102.447,124.059 103.113,125.726 103.5,127.5C 102.029,131.237 100.695,134.904 99.5,138.5C 98.4523,135.169 98.4523,131.669 99.5,128C 99.604,125.855 98.9373,124.021 97.5,122.5C 98.7224,120.022 100.722,119.022 103.5,119.5 Z"/></g>
<g><path style="opacity:1" fill="#d9964d" d="M 287.5,139.5 C 297.93,138.968 305.763,143.301 311,152.5C 311.667,155.167 311.667,157.833 311,160.5C 310.228,161.849 309.061,162.682 307.5,163C 299.398,165.528 291.398,165.695 283.5,163.5C 282.52,155.008 283.854,147.008 287.5,139.5 Z"/></g>
<g><path style="opacity:1" fill="#f8cd70" d="M 183.5,80.5 C 184.167,80.5 184.833,80.5 185.5,80.5C 179.681,81.3276 173.681,81.8276 167.5,82C 155.55,83.4216 144.884,87.7549 135.5,95C 127.779,96.8468 120.112,98.8468 112.5,101C 105.054,105.225 97.3869,109.225 89.5,113C 83.344,117.824 77.5107,122.991 72,128.5C 67.423,137.54 61.7564,145.873 55,153.5C 53.7765,157.615 51.7765,161.282 49,164.5C 41.9183,179.969 38.585,196.302 39,213.5C 38.7679,214.737 38.2679,215.737 37.5,216.5C 36.8887,205.501 36.7221,194.501 37,183.5C 40.2077,171.749 44.5411,160.415 50,149.5C 57.4726,139.393 65.3059,129.56 73.5,120C 90.9258,105.295 110.926,95.962 133.5,92C 148.791,82.512 165.457,78.6786 183.5,80.5 Z"/></g>
<g><path style="opacity:1" fill="#5f2c09" d="M 289.5,140.5 C 291.199,140.34 292.866,140.506 294.5,141C 300.584,144.089 305.751,148.256 310,153.5C 310.651,155.235 310.485,156.902 309.5,158.5C 302.745,162.704 295.412,164.204 287.5,163C 284.604,155.26 285.27,147.76 289.5,140.5 Z"/></g>
<g><path style="opacity:1" fill="#814621" d="M 290.5,143.5 C 296.698,144.431 301.365,147.598 304.5,153C 304.18,154.653 303.18,155.653 301.5,156C 296.904,157.286 292.237,158.119 287.5,158.5C 287.12,153.193 288.12,148.193 290.5,143.5 Z"/></g>
<g><path style="opacity:1" fill="#e29e4f" d="M 443.5,127.5 C 449.684,126.545 455.184,127.878 460,131.5C 460.804,137.569 460.471,143.569 459,149.5C 454.483,153.242 449.316,154.409 443.5,153C 438.961,151.96 436.294,149.126 435.5,144.5C 436.116,139.849 436.782,135.182 437.5,130.5C 439.604,129.481 441.604,128.481 443.5,127.5 Z"/></g>
<g><path style="opacity:1" fill="#64300a" d="M 445.5,128.5 C 455.398,128.227 459.898,132.894 459,142.5C 458.063,145.656 456.563,148.489 454.5,151C 448.153,152.109 442.986,150.276 439,145.5C 439.413,141.133 439.413,136.8 439,132.5C 440.748,130.372 442.915,129.039 445.5,128.5 Z"/></g>
<g><path style="opacity:1" fill="#7f4621" d="M 444.5,131.5 C 447.5,131.5 450.5,131.5 453.5,131.5C 455.473,136.765 454.807,141.599 451.5,146C 448.833,146.667 446.167,146.667 443.5,146C 442.484,145.481 441.818,144.647 441.5,143.5C 442.722,139.831 442.722,136.165 441.5,132.5C 442.791,132.737 443.791,132.404 444.5,131.5 Z"/></g>
<g><path style="opacity:1" fill="#d9984f" d="M 508.5,153.5 C 513.492,150.54 517.992,151.54 522,156.5C 522.793,160.423 522.626,164.256 521.5,168C 516.538,171.423 511.705,171.256 507,167.5C 506.833,165.167 506.667,162.833 506.5,160.5C 506.529,157.731 507.195,155.397 508.5,153.5 Z"/></g>
<g><path style="opacity:1" fill="#67310e" d="M 508.5,153.5 C 513.573,152.439 517.739,154.106 521,158.5C 522.229,164.095 520.063,167.429 514.5,168.5C 512.626,168.61 511.126,167.944 510,166.5C 508.003,162.233 507.503,157.899 508.5,153.5 Z"/></g>
<g><path style="opacity:1" fill="#e7a14e" d="M 365.5,139.5 C 367.591,140.865 369.924,141.532 372.5,141.5C 372.238,142.978 372.571,144.311 373.5,145.5C 384.353,149.889 388.52,157.889 386,169.5C 385.535,170.931 384.701,172.097 383.5,173C 377.553,173.147 371.72,173.981 366,175.5C 363.176,174.946 360.343,174.446 357.5,174C 356.756,171.093 355.09,168.927 352.5,167.5C 354.02,159.752 356.187,152.086 359,144.5C 361.946,143.707 364.113,142.04 365.5,139.5 Z"/></g>
<g><path style="opacity:1" fill="#622e0b" d="M 363.5,144.5 C 370.626,145.479 376.792,148.479 382,153.5C 386.768,159.612 386.601,165.445 381.5,171C 376.202,171.211 371.035,172.045 366,173.5C 364.033,173.458 362.199,172.958 360.5,172C 355.902,167.92 355.402,163.42 359,158.5C 358.733,153.16 360.233,148.494 363.5,144.5 Z"/></g>
<g><path style="opacity:1" fill="#834622" d="M 364.5,147.5 C 370.582,148.795 375.749,151.795 380,156.5C 380.978,159.669 380.478,162.503 378.5,165C 373.186,165.117 368.02,165.951 363,167.5C 360.966,167.568 359.466,166.734 358.5,165C 361.183,159.394 363.183,153.56 364.5,147.5 Z"/></g>
<g><path style="opacity:0.004" fill="#fefffe" d="M 562.5,174.5 C 563.833,175.167 563.833,175.167 562.5,174.5 Z"/></g>
<g><path style="opacity:1" fill="#602d0b" d="M 62.5,175.5 C 67.9648,179.006 72.7981,183.34 77,188.5C 77.7975,190.259 77.6309,191.926 76.5,193.5C 69.0979,197.85 61.0979,199.683 52.5,199C 51.9341,198.005 51.2674,197.172 50.5,196.5C 49.0462,189.588 49.8795,182.922 53,176.5C 55.8873,174.161 59.054,173.828 62.5,175.5 Z"/></g>
<g><path style="opacity:1" fill="#df9d51" d="M 218.5,180.5 C 217.51,174.69 217.177,168.69 217.5,162.5C 225.371,160.728 233.371,160.062 241.5,160.5C 245.01,169.265 244.01,177.431 238.5,185C 233.589,186.492 228.589,186.826 223.5,186C 220.921,184.924 219.254,183.091 218.5,180.5 Z"/></g>
<g><path style="opacity:1" fill="#7e4420" d="M 56.5,177.5 C 62.8836,178.366 67.8836,181.533 71.5,187C 70.8333,188.667 70.1667,190.333 69.5,192C 67.8876,192.72 66.3876,192.554 65,191.5C 62.674,193.164 60.3407,194.831 58,196.5C 56.4329,195.144 54.5996,194.477 52.5,194.5C 52.2132,188.38 53.5465,182.713 56.5,177.5 Z"/></g>
<g><path style="opacity:0.059" fill="#cfad7b" d="M 26.5,172.5 C 26.4376,187.869 25.1042,202.869 22.5,217.5C 22.7796,202.256 24.1129,187.256 26.5,172.5 Z"/></g>
<g><path style="opacity:1" fill="#632f0a" d="M 218.5,180.5 C 219.442,174.929 219.775,169.429 219.5,164C 226.693,160.319 233.527,160.819 240,165.5C 242.282,171.904 241.449,177.904 237.5,183.5C 230.527,186.504 224.193,185.504 218.5,180.5 Z"/></g>
<g><path style="opacity:1" fill="#834523" d="M 222.5,164.5 C 237.415,162.869 240.415,168.035 231.5,180C 228.24,180.784 225.073,180.617 222,179.5C 222.474,174.424 222.641,169.424 222.5,164.5 Z"/></g>
<g><path style="opacity:1" fill="#db9447" d="M 62.5,175.5 C 63.8734,175.343 65.2068,175.51 66.5,176C 70.6674,178.614 75.0007,180.78 79.5,182.5C 79.4511,185.374 79.7844,188.208 80.5,191C 79.222,193.282 77.5554,195.282 75.5,197C 67.7835,200.144 59.7835,201.477 51.5,201C 49.5339,199.653 49.2006,198.153 50.5,196.5C 51.2674,197.172 51.9341,198.005 52.5,199C 61.0979,199.683 69.0979,197.85 76.5,193.5C 77.6309,191.926 77.7975,190.259 77,188.5C 72.7981,183.34 67.9648,179.006 62.5,175.5 Z"/></g>
<g><path style="opacity:0.004" fill="#fefffe" d="M 12.5,187.5 C 13.8333,188.167 13.8333,188.167 12.5,187.5 Z"/></g>
<g><path style="opacity:1" fill="#c18434" d="M 265.5,119.5 C 265.579,121.666 266.246,123.666 267.5,125.5C 265.302,131.653 263.802,137.986 263,144.5C 261.641,163.854 260.141,183.187 258.5,202.5C 258.647,212.304 259.647,221.971 261.5,231.5C 261.588,236.536 262.088,241.536 263,246.5C 265.642,248.279 267.142,250.779 267.5,254C 267.156,255.365 266.489,256.532 265.5,257.5C 267.015,259.547 267.849,261.881 268,264.5C 271.567,267.98 273.234,272.313 273,277.5C 274.716,276.448 275.716,277.114 276,279.5C 276.333,279.167 276.667,278.833 277,278.5C 278.143,282.794 278.977,287.127 279.5,291.5C 280.5,291.5 281.5,291.5 282.5,291.5C 281.923,294.55 283.09,296.55 286,297.5C 285.651,301.459 287.317,304.126 291,305.5C 292.421,306.921 294.255,308.755 296.5,311C 298.025,312.009 299.692,312.509 301.5,312.5C 301.567,313.959 301.234,315.292 300.5,316.5C 292.324,310.31 284.824,303.31 278,295.5C 274.253,286.839 270.087,278.339 265.5,270C 257.578,251.88 252.244,233.047 249.5,213.5C 252.957,189.26 255.291,164.927 256.5,140.5C 258.713,133.084 261.713,126.084 265.5,119.5 Z"/></g>
<g><path style="opacity:1" fill="#da974a" d="M 150.5,183.5 C 154.636,184.785 157.802,187.452 160,191.5C 161.456,197.097 161.789,202.763 161,208.5C 160.5,209 160,209.5 159.5,210C 152.471,210.238 145.471,210.738 138.5,211.5C 128.877,210.916 125.044,205.916 127,196.5C 129.989,191.199 131.989,185.533 133,179.5C 139.972,176.031 145.806,177.364 150.5,183.5 Z"/></g>
<g><path style="opacity:1" fill="#5f2d0a" d="M 150.5,183.5 C 158.959,188.761 161.459,196.094 158,205.5C 151.17,206.903 144.337,208.237 137.5,209.5C 132.284,208.619 128.951,205.619 127.5,200.5C 131.035,195.06 132.868,189.06 133,182.5C 134.497,180.323 136.497,178.99 139,178.5C 142.754,180.292 146.587,181.959 150.5,183.5 Z"/></g>
<g><path style="opacity:1" fill="#83451f" d="M 137.5,181.5 C 143.245,182.956 148.411,185.623 153,189.5C 155.733,193.137 155.899,196.804 153.5,200.5C 147.223,201.052 141.056,202.052 135,203.5C 132.966,203.568 131.466,202.734 130.5,201C 133.345,194.628 135.678,188.128 137.5,181.5 Z"/></g>
<g><path style="opacity:1" fill="#622f0b" d="M 212.5,257.5 C 209.887,258.435 207.221,258.602 204.5,258C 197.097,251.274 191.264,243.44 187,234.5C 185.919,230.657 187.086,227.657 190.5,225.5C 194.118,223.521 197.784,221.854 201.5,220.5C 218.923,215.757 225.09,222.09 220,239.5C 217.763,245.636 215.263,251.636 212.5,257.5 Z"/></g>
<g><path style="opacity:1" fill="#db9a4e" d="M 212.5,257.5 C 215.263,251.636 217.763,245.636 220,239.5C 225.09,222.09 218.923,215.757 201.5,220.5C 202.263,219.732 203.263,219.232 204.5,219C 209.167,218.333 213.833,218.333 218.5,219C 219.667,220.167 220.833,221.333 222,222.5C 222.561,230.916 221.894,239.249 220,247.5C 217.723,251.08 215.223,254.414 212.5,257.5 Z"/></g>
<g><path style="opacity:1" fill="#ed9f41" d="M 519.5,141.5 C 526.277,149.153 530.11,158.153 531,168.5C 531.054,184.078 531.887,199.578 533.5,215C 533.137,224.6 531.97,234.1 530,243.5C 527.111,247.056 525.111,251.056 524,255.5C 519.888,259.409 516.888,264.076 515,269.5C 514,270.167 513,270.833 512,271.5C 508.913,277.328 505.08,282.662 500.5,287.5C 499.571,288.689 499.238,290.022 499.5,291.5C 498.178,291.33 497.011,291.663 496,292.5C 494.093,296.41 491.427,299.744 488,302.5C 487.517,303.448 487.351,304.448 487.5,305.5C 486.448,305.351 485.448,305.517 484.5,306C 479.021,313.281 472.021,318.614 463.5,322C 453.217,323.905 442.883,325.572 432.5,327C 417.449,332.877 401.782,334.877 385.5,333C 376.149,330.812 367.482,327.312 359.5,322.5C 361.936,322.317 364.103,322.984 366,324.5C 367.062,323.101 368.395,322.101 370,321.5C 372.553,322.223 374.72,323.556 376.5,325.5C 380.451,322.127 383.118,323.294 384.5,329C 390.528,329.17 396.528,329.67 402.5,330.5C 403,331.881 404,332.547 405.5,332.5C 408.754,331.287 411.92,329.954 415,328.5C 416.707,328.648 418.374,328.982 420,329.5C 420.112,328.029 421.279,326.862 423.5,326C 411.238,326.305 406.404,320.472 409,308.5C 409.383,307.944 409.883,307.611 410.5,307.5C 410.384,304.09 412.05,302.756 415.5,303.5C 415.33,302.178 415.663,301.011 416.5,300C 418.18,299.966 419.68,299.799 421,299.5C 421.915,300.328 422.581,301.328 423,302.5C 423.333,302.167 423.667,301.833 424,301.5C 427.75,304.693 432.084,306.693 437,307.5C 438.487,306.747 438.654,305.914 437.5,305C 441.903,300.899 444.07,295.733 444,289.5C 446.432,285.548 448.099,281.215 449,276.5C 449.915,277.328 450.581,278.328 451,279.5C 452.667,277.5 454.333,275.5 456,273.5C 456.333,273.833 456.667,274.167 457,274.5C 457.006,272.191 457.172,270.025 457.5,268C 457.095,267.055 456.428,266.388 455.5,266C 456.991,263.282 458.324,260.449 459.5,257.5C 460.689,256.571 462.022,256.238 463.5,256.5C 463.744,253.305 465.244,252.305 468,253.5C 469.319,252.681 470.485,251.681 471.5,250.5C 470.833,250.167 470.167,249.833 469.5,249.5C 471.946,246.769 474.946,244.769 478.5,243.5C 479.262,244.628 479.929,245.795 480.5,247C 483.562,247.741 486.562,247.575 489.5,246.5C 493.395,248.483 497.395,249.15 501.5,248.5C 502.83,245.151 502.33,244.818 500,247.5C 498.8,245.588 497.133,244.255 495,243.5C 494.667,242.5 494.333,241.5 494,240.5C 493.465,242.271 492.631,242.604 491.5,241.5C 492.374,239.253 492.708,236.92 492.5,234.5C 493.451,235.919 493.784,237.585 493.5,239.5C 503.796,238.457 514.129,237.457 524.5,236.5C 526.183,230.289 526.85,223.955 526.5,217.5C 524.62,217.771 523.287,217.104 522.5,215.5C 523.496,215.586 524.329,215.252 525,214.5C 526.037,211.595 527.204,208.761 528.5,206C 527.953,205.075 527.287,204.242 526.5,203.5C 521.882,206.844 519.215,205.677 518.5,200C 519.634,198.984 519.301,198.317 517.5,198C 520.961,197.126 523.961,197.96 526.5,200.5C 527.474,198.257 527.808,195.924 527.5,193.5C 525.897,193.688 524.563,193.188 523.5,192C 529.09,189.37 530.424,185.537 527.5,180.5C 528.338,172.508 528.171,164.508 527,156.5C 523.418,152.002 520.918,147.002 519.5,141.5 Z"/></g>
<g><path style="opacity:1" fill="#e29e4f" d="M 201.5,220.5 C 197.784,221.854 194.118,223.521 190.5,225.5C 187.086,227.657 185.919,230.657 187,234.5C 191.264,243.44 197.097,251.274 204.5,258C 207.221,258.602 209.887,258.435 212.5,257.5C 212.67,258.822 212.337,259.989 211.5,261C 208.5,261.667 205.5,261.667 202.5,261C 198.019,254.521 192.852,248.688 187,243.5C 185.194,238.622 184.527,233.622 185,228.5C 186.191,225.466 188.358,223.799 191.5,223.5C 191.5,222.5 191.5,221.5 191.5,220.5C 194.833,220.5 198.167,220.5 201.5,220.5 Z"/></g>
<g><path style="opacity:0.055" fill="#c29e6d" d="M 22.5,218.5 C 21.9284,227.17 21.2617,235.837 20.5,244.5C 20.7598,249.844 21.0931,255.177 21.5,260.5C 18.7875,246.451 19.1209,232.451 22.5,218.5 Z"/></g>
<g><path style="opacity:1" fill="#9c6524" d="M 507.5,99.5 C 510.372,100.526 512.872,102.193 515,104.5C 516.764,109.465 519.098,114.131 522,118.5C 522.413,121.232 523.08,123.899 524,126.5C 525.205,127.071 526.372,127.738 527.5,128.5C 529.193,133.424 531.359,138.09 534,142.5C 534.667,143.833 535.333,143.833 536,142.5C 537.096,148.023 538.763,153.356 541,158.5C 543.615,183.79 544.449,209.123 543.5,234.5C 541.618,241.082 540.284,247.748 539.5,254.5C 538.5,254.5 537.5,254.5 536.5,254.5C 533.898,261.979 529.731,268.646 524,274.5C 521.658,278.173 519.324,281.839 517,285.5C 515.89,287.037 514.39,287.703 512.5,287.5C 512.657,288.873 512.49,290.207 512,291.5C 507.845,293.136 507.345,295.47 510.5,298.5C 510.5,299.167 510.167,299.5 509.5,299.5C 508.167,299.5 506.833,299.5 505.5,299.5C 505.872,302.022 505.039,304.022 503,305.5C 502.667,305.167 502.333,304.833 502,304.5C 497.335,309.213 493.169,314.213 489.5,319.5C 486.528,321.968 483.194,323.802 479.5,325C 478.929,326.205 478.262,327.372 477.5,328.5C 473.49,330.119 469.823,332.286 466.5,335C 448.604,335.31 431.271,338.477 414.5,344.5C 404.145,344.832 393.812,344.499 383.5,343.5C 382.757,342.818 382.091,342.151 381.5,341.5C 390.738,343.395 400.071,343.895 409.5,343C 424.489,338.336 439.823,335.336 455.5,334C 472.56,329.719 486.393,320.552 497,306.5C 508.922,290.974 520.589,275.307 532,259.5C 536.381,249.943 539.381,239.943 541,229.5C 541.044,206.822 540.377,184.155 539,161.5C 535.838,149.174 530.505,137.841 523,127.5C 520.748,120.708 517.748,114.375 514,108.5C 511.615,105.621 509.448,102.621 507.5,99.5 Z"/></g>
<g><path style="opacity:1" fill="#7e421f" d="M 207.5,222.5 C 210.167,222.833 212.833,223.167 215.5,223.5C 216.098,230.438 215.265,237.105 213,243.5C 210.128,246.339 207.128,249.005 204,251.5C 197.072,246.742 192.239,240.409 189.5,232.5C 190.219,230.272 191.552,228.439 193.5,227C 198.254,225.358 202.921,223.858 207.5,222.5 Z"/></g>
<g><path style="opacity:1" fill="#db984d" d="M 67.5,245.5 C 70.5184,245.335 73.5184,245.502 76.5,246C 80.9736,248.973 85.3069,252.14 89.5,255.5C 92.9468,261.894 93.2801,268.394 90.5,275C 84.0994,276.364 78.0994,278.531 72.5,281.5C 68.5105,279.84 64.5105,278.173 60.5,276.5C 59.3401,272.541 59.1735,268.541 60,264.5C 60.2602,262.382 61.2602,260.716 63,259.5C 63.3333,256.5 63.6667,253.5 64,250.5C 65.6692,249.154 66.8358,247.487 67.5,245.5 Z"/></g>
<g><path style="opacity:1" fill="#9c6521" d="M 269.5,111.5 C 271.022,112.191 272.022,113.358 272.5,115C 271.616,117.473 271.283,119.807 271.5,122C 272,122.5 272.5,123 273,123.5C 273.2,121.68 274.034,120.347 275.5,119.5C 272.738,124.496 270.572,129.829 269,135.5C 267.881,154.257 265.881,172.924 263,191.5C 262.333,198.833 262.333,206.167 263,213.5C 268.395,239.629 277.728,264.296 291,287.5C 297.412,295.123 304.579,301.956 312.5,308C 320.267,312.542 327.934,317.042 335.5,321.5C 329.708,319.626 324.042,317.459 318.5,315C 316.866,314.506 315.199,314.34 313.5,314.5C 313.737,315.791 313.404,316.791 312.5,317.5C 306.616,309.78 299.783,302.78 292,296.5C 287.992,291.092 284.159,285.592 280.5,280C 279.839,277.536 279.339,275.036 279,272.5C 276.571,269.81 274.571,266.81 273,263.5C 268.835,252.86 265.002,242.194 261.5,231.5C 259.647,221.971 258.647,212.304 258.5,202.5C 260.141,183.187 261.641,163.854 263,144.5C 263.802,137.986 265.302,131.653 267.5,125.5C 266.246,123.666 265.579,121.666 265.5,119.5C 267.362,117.109 268.696,114.442 269.5,111.5 Z"/></g>
<g><path style="opacity:1" fill="#df8e3b" d="M 496.5,92.5 C 500.434,94.4385 504.101,96.7719 507.5,99.5C 509.448,102.621 511.615,105.621 514,108.5C 517.748,114.375 520.748,120.708 523,127.5C 530.505,137.841 535.838,149.174 539,161.5C 540.377,184.155 541.044,206.822 541,229.5C 539.381,239.943 536.381,249.943 532,259.5C 520.589,275.307 508.922,290.974 497,306.5C 486.393,320.552 472.56,329.719 455.5,334C 439.823,335.336 424.489,338.336 409.5,343C 400.071,343.895 390.738,343.395 381.5,341.5C 373.171,339.498 365.171,336.664 357.5,333C 352.473,329.82 347.14,327.153 341.5,325C 340.619,324.292 339.953,323.458 339.5,322.5C 337.114,320.606 335.114,318.272 333.5,315.5C 330.627,314.225 327.627,313.392 324.5,313C 322.854,311.445 322.521,309.779 323.5,308C 319.332,307.625 315.332,306.625 311.5,305C 309.919,303.172 308.585,301.172 307.5,299C 305.579,298.64 303.912,297.806 302.5,296.5C 301.019,292.679 298.353,290.345 294.5,289.5C 294.66,287.801 294.494,286.134 294,284.5C 290.335,279.172 286.669,273.839 283,268.5C 280.665,260.75 277.832,253.25 274.5,246C 275.554,244.612 275.72,243.112 275,241.5C 274.667,242.167 274.333,242.833 274,243.5C 271.556,239.432 269.556,235.099 268,230.5C 265.647,215.916 264.98,201.25 266,186.5C 266.217,183.512 267.217,180.845 269,178.5C 269.632,180.965 271.132,182.631 273.5,183.5C 274.292,182.3 274.292,180.967 273.5,179.5C 274.993,180.312 275.66,181.645 275.5,183.5C 273.526,195.424 273.026,207.424 274,219.5C 276.065,227.861 278.232,236.195 280.5,244.5C 285.591,256.495 291.424,268.161 298,279.5C 302.481,284.989 307.315,290.156 312.5,295C 313.448,295.483 314.448,295.649 315.5,295.5C 315.5,296.5 315.5,297.5 315.5,298.5C 317.199,298.527 318.533,299.194 319.5,300.5C 325.333,304.92 331.667,308.587 338.5,311.5C 344.813,316.48 351.813,320.147 359.5,322.5C 367.482,327.312 376.149,330.812 385.5,333C 401.782,334.877 417.449,332.877 432.5,327C 442.883,325.572 453.217,323.905 463.5,322C 472.021,318.614 479.021,313.281 484.5,306C 485.448,305.517 486.448,305.351 487.5,305.5C 487.351,304.448 487.517,303.448 488,302.5C 491.427,299.744 494.093,296.41 496,292.5C 497.011,291.663 498.178,291.33 499.5,291.5C 499.238,290.022 499.571,288.689 500.5,287.5C 505.08,282.662 508.913,277.328 512,271.5C 513,270.833 514,270.167 515,269.5C 516.888,264.076 519.888,259.409 524,255.5C 525.111,251.056 527.111,247.056 530,243.5C 531.97,234.1 533.137,224.6 533.5,215C 531.887,199.578 531.054,184.078 531,168.5C 530.11,158.153 526.277,149.153 519.5,141.5C 515.293,130.513 509.959,120.18 503.5,110.5C 496,103.311 488,96.9778 479.5,91.5C 479.335,88.4816 479.502,85.4816 480,82.5C 485.211,85.4431 489.878,89.1098 494,93.5C 494.671,92.7476 495.504,92.4142 496.5,92.5 Z"/></g>
<g><path style="opacity:1" fill="#d7964c" d="M 302.5,207.5 C 312.088,205.669 319.088,209.335 323.5,218.5C 324.66,222.459 324.827,226.459 324,230.5C 322.782,232.019 321.282,233.186 319.5,234C 315.592,235.391 311.592,236.558 307.5,237.5C 305.625,237.37 303.792,237.037 302,236.5C 300.7,234.541 298.867,233.374 296.5,233C 295.62,231.644 295.286,230.144 295.5,228.5C 297.337,231.105 299.67,233.272 302.5,235C 303.873,235.875 305.373,236.375 307,236.5C 310.81,234.015 314.976,232.182 319.5,231C 323.269,226.096 323.435,220.929 320,215.5C 315.221,210.527 309.388,207.861 302.5,207.5 Z"/></g>
<g><path style="opacity:1" fill="#e19d49" d="M 430.5,181.5 C 434.233,180.179 438.066,180.179 442,181.5C 445.422,194.811 443.256,207.145 435.5,218.5C 432.216,219.657 428.882,219.824 425.5,219C 424.177,218.184 423.511,217.017 423.5,215.5C 425.926,217.218 428.593,217.718 431.5,217C 438.891,207.384 441.725,196.551 440,184.5C 437.358,181.971 434.192,180.971 430.5,181.5 Z"/></g>
<g><path style="opacity:1" fill="#612d09" d="M 302.5,207.5 C 309.388,207.861 315.221,210.527 320,215.5C 323.435,220.929 323.269,226.096 319.5,231C 314.976,232.182 310.81,234.015 307,236.5C 305.373,236.375 303.873,235.875 302.5,235C 299.67,233.272 297.337,231.105 295.5,228.5C 296.88,222.516 298.38,216.516 300,210.5C 300.377,209.058 301.21,208.058 302.5,207.5 Z"/></g>
<g><path style="opacity:1" fill="#83451f" d="M 303.5,209.5 C 307.76,211.63 312.094,213.797 316.5,216C 318.067,219.892 317.733,223.558 315.5,227C 311.653,227.763 308.153,229.263 305,231.5C 301.661,231 299.494,229.167 298.5,226C 300.857,220.723 302.523,215.223 303.5,209.5 Z"/></g>
<g><path style="opacity:1" fill="#e09a4d" d="M 522.5,215.5 C 523.287,217.104 524.62,217.771 526.5,217.5C 526.85,223.955 526.183,230.289 524.5,236.5C 514.129,237.457 503.796,238.457 493.5,239.5C 493.784,237.585 493.451,235.919 492.5,234.5C 491.877,227.745 492.544,221.412 494.5,215.5C 494.694,212.67 495.361,210.004 496.5,207.5C 497.552,207.649 498.552,207.483 499.5,207C 503.228,203.448 507.728,201.615 513,201.5C 514.605,202.101 515.938,203.101 517,204.5C 518.188,208.613 520.021,212.28 522.5,215.5 Z"/></g>
<g><path style="opacity:1" fill="#633210" d="M 494.5,215.5 C 497.755,208.713 503.088,205.213 510.5,205C 511.579,205.956 512.745,206.789 514,207.5C 516.589,213.016 519.922,218.016 524,222.5C 525.214,227.343 524.047,231.51 520.5,235C 512.396,235.701 504.396,236.701 496.5,238C 495.107,236.829 494.273,235.329 494,233.5C 493.254,227.449 493.421,221.449 494.5,215.5 Z"/></g>
<g><path style="opacity:1" fill="#824521" d="M 505.5,207.5 C 509.432,207.26 512.266,208.927 514,212.5C 514.759,215.785 516.092,218.785 518,221.5C 518.789,224.8 517.956,227.633 515.5,230C 509.088,230.44 502.755,231.274 496.5,232.5C 496.149,226.738 496.649,221.072 498,215.5C 500.028,212.308 502.528,209.641 505.5,207.5 Z"/></g>
<g><path style="opacity:1" fill="#63310f" d="M 429.5,181.5 C 429.833,181.5 430.167,181.5 430.5,181.5C 434.192,180.971 437.358,181.971 440,184.5C 441.725,196.551 438.891,207.384 431.5,217C 428.593,217.718 425.926,217.218 423.5,215.5C 417.172,209.005 412.505,201.505 409.5,193C 410.456,188.044 413.456,185.044 418.5,184C 422.347,183.367 426.014,182.533 429.5,181.5 Z"/></g>
<g><path style="opacity:1" fill="#82441f" d="M 422.5,185.5 C 426.555,185.176 430.555,185.509 434.5,186.5C 433.748,191.6 432.581,196.6 431,201.5C 429.667,204.837 427.834,207.837 425.5,210.5C 419.279,206.279 414.946,200.612 412.5,193.5C 414.381,188.946 417.715,186.279 422.5,185.5 Z"/></g>
<g><path style="opacity:1" fill="#e8a04d" d="M 429.5,181.5 C 426.014,182.533 422.347,183.367 418.5,184C 413.456,185.044 410.456,188.044 409.5,193C 412.505,201.505 417.172,209.005 423.5,215.5C 421.271,214.945 419.605,213.611 418.5,211.5C 417.311,210.571 415.978,210.238 414.5,210.5C 413.39,204.311 410.724,203.311 406.5,207.5C 406.167,206.833 405.833,206.167 405.5,205.5C 406.459,203.25 407.125,200.916 407.5,198.5C 405.605,192.135 407.272,186.968 412.5,183C 418.135,182.096 423.802,181.596 429.5,181.5 Z"/></g>
<g><path style="opacity:1" fill="#622f0b" d="M 399.5,240.5 C 399.826,248.35 397.826,255.516 393.5,262C 387.477,263.9 381.477,263.733 375.5,261.5C 371.726,260.694 369.226,258.361 368,254.5C 367.556,251.043 368.056,247.71 369.5,244.5C 369.125,242.084 368.459,239.75 367.5,237.5C 369.569,233.631 372.902,231.465 377.5,231C 387.363,228.666 394.697,231.833 399.5,240.5 Z"/></g>
<g><path style="opacity:1" fill="#834521" d="M 377.5,233.5 C 380.85,233.335 384.183,233.502 387.5,234C 388.931,234.465 390.097,235.299 391,236.5C 391.758,242.891 391.424,249.224 390,255.5C 387.343,257.427 384.343,258.76 381,259.5C 378.266,258.22 375.433,257.054 372.5,256C 371.196,255.196 370.529,254.029 370.5,252.5C 373.157,247.877 373.157,243.21 370.5,238.5C 372.37,236.076 374.703,234.409 377.5,233.5 Z"/></g>
<g><path style="opacity:0.49" fill="#a07a43" d="M 539.5,254.5 C 531.835,270.5 522.168,285.167 510.5,298.5C 507.345,295.47 507.845,293.136 512,291.5C 512.49,290.207 512.657,288.873 512.5,287.5C 514.39,287.703 515.89,287.037 517,285.5C 519.324,281.839 521.658,278.173 524,274.5C 529.731,268.646 533.898,261.979 536.5,254.5C 537.5,254.5 538.5,254.5 539.5,254.5 Z"/></g>
<g><path style="opacity:0.004" fill="#fefffe" d="M 551.5,260.5 C 552.833,261.167 552.833,261.167 551.5,260.5 Z"/></g>
<g><path style="opacity:1" fill="#612c08" d="M 68.5,247.5 C 70.5273,247.338 72.5273,247.505 74.5,248C 79.0187,250.835 83.5187,253.669 88,256.5C 91.0479,262.151 91.2145,267.818 88.5,273.5C 86.2338,274.314 83.9005,274.814 81.5,275C 79.2232,276.959 76.7232,278.459 74,279.5C 67.5119,277.852 63.3453,273.852 61.5,267.5C 63.9184,262.078 65.4184,256.411 66,250.5C 67.045,249.627 67.8783,248.627 68.5,247.5 Z"/></g>
<g><path style="opacity:1" fill="#834824" d="M 69.5,250.5 C 75.0747,251.476 80.0747,253.809 84.5,257.5C 85.6888,261.817 85.6888,266.15 84.5,270.5C 79.5335,269.826 75.2001,271.16 71.5,274.5C 67.7245,273.891 65.3912,271.725 64.5,268C 66.874,262.333 68.5407,256.499 69.5,250.5 Z"/></g>
<g><path style="opacity:1" fill="#d69246" d="M 399.5,240.5 C 402.018,249.472 400.352,257.639 394.5,265C 387.309,267.651 380.976,266.484 375.5,261.5C 381.477,263.733 387.477,263.9 393.5,262C 397.826,255.516 399.826,248.35 399.5,240.5 Z"/></g>
<g><path style="opacity:1" fill="#63300c" d="M 173.5,279.5 C 176.561,289.77 174.895,299.27 168.5,308C 159.161,310.503 150.494,309.003 142.5,303.5C 141.7,301.393 141.033,299.226 140.5,297C 143.058,291.763 143.058,286.596 140.5,281.5C 141.517,277.98 143.85,275.813 147.5,275C 157.043,271.997 165.709,273.497 173.5,279.5 Z"/></g>
<g><path style="opacity:1" fill="#7c4521" d="M 471.5,279.5 C 473.426,278.514 475.426,277.514 477.5,276.5C 477.279,277.735 476.612,278.735 475.5,279.5C 475.833,279.833 476.167,280.167 476.5,280.5C 479.45,278.885 482.116,276.885 484.5,274.5C 486.06,278.586 485.393,282.253 482.5,285.5C 477.167,286.833 471.833,286.833 466.5,285.5C 468.659,283.005 471.326,281.339 474.5,280.5C 473.675,279.614 472.675,279.281 471.5,279.5 Z"/></g>
<g><path style="opacity:1" fill="#612d09" d="M 464.5,288.5 C 463.387,287.054 463.22,285.387 464,283.5C 465.045,282.627 465.878,281.627 466.5,280.5C 468.117,279.962 469.784,279.629 471.5,279.5C 472.675,279.281 473.675,279.614 474.5,280.5C 471.326,281.339 468.659,283.005 466.5,285.5C 471.833,286.833 477.167,286.833 482.5,285.5C 485.393,282.253 486.06,278.586 484.5,274.5C 482.116,276.885 479.45,278.885 476.5,280.5C 476.167,280.167 475.833,279.833 475.5,279.5C 476.612,278.735 477.279,277.735 477.5,276.5C 480.245,272.963 483.912,271.296 488.5,271.5C 488.666,276.179 488.499,280.845 488,285.5C 485.288,289.915 481.288,291.582 476,290.5C 471.975,290.648 468.141,289.981 464.5,288.5 Z"/></g>
<g><path style="opacity:1" fill="#d6924a" d="M 464.5,288.5 C 468.141,289.981 471.975,290.648 476,290.5C 481.288,291.582 485.288,289.915 488,285.5C 488.499,280.845 488.666,276.179 488.5,271.5C 483.912,271.296 480.245,272.963 477.5,276.5C 475.426,277.514 473.426,278.514 471.5,279.5C 469.784,279.629 468.117,279.962 466.5,280.5C 466.414,279.504 466.748,278.671 467.5,278C 472.277,276.924 476.277,274.591 479.5,271C 482.833,270.333 486.167,270.333 489.5,271C 490.639,276.416 490.806,281.916 490,287.5C 489.044,288.579 488.211,289.745 487.5,291C 480.916,292.544 474.249,292.877 467.5,292C 465.937,291.241 464.937,290.074 464.5,288.5 Z"/></g>
<g><path style="opacity:1" fill="#ed9f41" d="M 256.5,140.5 C 255.291,164.927 252.957,189.26 249.5,213.5C 252.244,233.047 257.578,251.88 265.5,270C 270.087,278.339 274.253,286.839 278,295.5C 284.824,303.31 292.324,310.31 300.5,316.5C 298.146,319.403 296.312,322.736 295,326.5C 293.989,327.337 292.822,327.67 291.5,327.5C 291.649,328.552 291.483,329.552 291,330.5C 284.197,338.12 278.031,346.12 272.5,354.5C 266.34,360.158 260.006,365.658 253.5,371C 249.017,371.577 245.017,373.243 241.5,376C 224.455,377.874 207.788,381.208 191.5,386C 180.833,386.667 170.167,386.667 159.5,386C 155.768,384.658 152.101,383.491 148.5,382.5C 159.546,383.269 170.546,384.103 181.5,385C 185.749,383.874 190.082,383.208 194.5,383C 198.637,382.152 202.637,380.819 206.5,379C 201.493,377.885 196.493,377.052 191.5,376.5C 199.699,377.9 206.865,375.9 213,370.5C 214.569,366.852 214.736,363.186 213.5,359.5C 215.734,360.819 217.068,362.819 217.5,365.5C 216.124,369.046 214.124,372.213 211.5,375C 213.519,375.45 215.352,376.283 217,377.5C 218.333,376.167 219.667,376.167 221,377.5C 220.959,374.196 220.626,370.863 220,367.5C 219.5,367 219,366.5 218.5,366C 220.357,364.818 221.357,363.151 221.5,361C 220.582,358.914 219.915,356.747 219.5,354.5C 222.588,354.361 225.255,353.361 227.5,351.5C 227.67,350.178 227.337,349.011 226.5,348C 228.551,344.704 228.717,341.204 227,337.5C 226.667,338.167 226.333,338.833 226,339.5C 225.333,337.5 225.333,335.5 226,333.5C 229.984,325.531 233.984,317.531 238,309.5C 238.667,310.833 239.333,310.833 240,309.5C 240.667,308.167 241.333,306.833 242,305.5C 242.333,306.167 242.667,306.833 243,307.5C 243.684,305.641 244.684,303.974 246,302.5C 246.333,302.833 246.667,303.167 247,303.5C 248.399,302.773 249.899,302.273 251.5,302C 250.376,301.751 249.376,301.251 248.5,300.5C 248.833,300.167 249.167,299.833 249.5,299.5C 251.326,299.92 253.326,299.92 255.5,299.5C 254.371,296.668 254.871,294.001 257,291.5C 257.374,292.416 257.874,293.25 258.5,294C 257.112,294.889 257.278,295.389 259,295.5C 259.253,294.465 260.086,293.465 261.5,292.5C 261.023,291.522 260.357,290.689 259.5,290C 261.379,289.937 263.213,290.437 265,291.5C 267.009,290.828 268.842,289.828 270.5,288.5C 268.044,283.462 266.377,278.128 265.5,272.5C 264.52,271.019 263.353,269.685 262,268.5C 259.465,261.228 257.132,253.895 255,246.5C 254.167,245.5 253.333,244.5 252.5,243.5C 251.442,236.818 250.275,230.152 249,223.5C 248,222.833 247,222.167 246,221.5C 245.762,212.826 246.095,204.159 247,195.5C 248.359,193.078 249.525,190.578 250.5,188C 253.469,173.624 254.469,159.124 253.5,144.5C 250.762,144.113 248.428,143.113 246.5,141.5C 250.025,142.994 253.358,142.661 256.5,140.5 Z"/></g>
<g><path style="opacity:1" fill="#b98038" d="M 261.5,231.5 C 265.002,242.194 268.835,252.86 273,263.5C 274.571,266.81 276.571,269.81 279,272.5C 279.339,275.036 279.839,277.536 280.5,280C 284.159,285.592 287.992,291.092 292,296.5C 299.783,302.78 306.616,309.78 312.5,317.5C 311.154,319.537 309.82,321.537 308.5,323.5C 305.905,321.184 303.239,318.851 300.5,316.5C 301.234,315.292 301.567,313.959 301.5,312.5C 299.692,312.509 298.025,312.009 296.5,311C 294.255,308.755 292.421,306.921 291,305.5C 287.317,304.126 285.651,301.459 286,297.5C 283.09,296.55 281.923,294.55 282.5,291.5C 281.5,291.5 280.5,291.5 279.5,291.5C 278.977,287.127 278.143,282.794 277,278.5C 276.667,278.833 276.333,279.167 276,279.5C 275.716,277.114 274.716,276.448 273,277.5C 273.234,272.313 271.567,267.98 268,264.5C 267.849,261.881 267.015,259.547 265.5,257.5C 266.489,256.532 267.156,255.365 267.5,254C 267.142,250.779 265.642,248.279 263,246.5C 262.088,241.536 261.588,236.536 261.5,231.5 Z"/></g>
<g><path style="opacity:1" fill="#834520" d="M 153.5,275.5 C 158.032,275.074 162.199,276.074 166,278.5C 167.57,287.075 166.237,295.075 162,302.5C 161.08,304.314 159.58,305.314 157.5,305.5C 152.993,305.003 148.826,303.669 145,301.5C 144.542,297.323 144.708,293.157 145.5,289C 145.589,286.287 144.922,283.787 143.5,281.5C 143.977,280.522 144.643,279.689 145.5,279C 147.698,278.627 149.865,278.127 152,277.5C 153.03,277.164 153.53,276.497 153.5,275.5 Z"/></g>
<g><path style="opacity:1" fill="#df9a49" d="M 173.5,279.5 C 177.945,280.229 179.611,282.895 178.5,287.5C 178.447,295.297 176.447,302.463 172.5,309C 168.514,311.665 164.181,312.665 159.5,312C 153.992,310.617 148.658,308.617 143.5,306C 142.748,305.329 142.414,304.496 142.5,303.5C 150.494,309.003 159.161,310.503 168.5,308C 174.895,299.27 176.561,289.77 173.5,279.5 Z"/></g>
<g><path style="opacity:1" fill="#e59c48" d="M 351.5,289.5 C 363.821,292.182 365.821,298.349 357.5,308C 351.705,310.317 345.705,310.984 339.5,310C 334.776,308.067 334.442,308.567 338.5,311.5C 331.667,308.587 325.333,304.92 319.5,300.5C 323.165,298.489 325.165,299.489 325.5,303.5C 327.167,303.5 328.833,303.5 330.5,303.5C 328.543,296.602 331.21,292.769 338.5,292C 340.412,290.8 341.745,289.133 342.5,287C 345.482,286.502 348.482,286.335 351.5,286.5C 351.5,287.5 351.5,288.5 351.5,289.5 Z"/></g>
<g><path style="opacity:1" fill="#612c0b" d="M 351.5,289.5 C 354.179,291.601 357.012,293.601 360,295.5C 360.93,298.85 360.097,301.683 357.5,304C 351.847,307.098 345.847,308.098 339.5,307C 330.862,300.379 331.529,295.379 341.5,292C 344.128,288.44 347.461,287.607 351.5,289.5 Z"/></g>
<g><path style="opacity:1" fill="#804621" d="M 346.5,291.5 C 352.701,292.163 355.034,295.33 353.5,301C 349.267,301.075 345.267,301.908 341.5,303.5C 338.413,302.139 336.746,299.805 336.5,296.5C 340.684,296.408 344.017,294.741 346.5,291.5 Z"/></g>
<g><path style="opacity:0.996" fill="#9a692d" d="M 462.5,57.5 C 463.928,63.4159 467.595,67.4159 473.5,69.5C 475.474,73.1395 478.141,76.1395 481.5,78.5C 489.448,83.9652 497.115,89.7986 504.5,96C 505.448,96.4828 506.448,96.6495 507.5,96.5C 507.5,97.5 507.5,98.5 507.5,99.5C 504.101,96.7719 500.434,94.4385 496.5,92.5C 489.524,87.1978 482.524,81.8645 475.5,76.5C 474.386,75.1147 473.386,73.6147 472.5,72C 447.131,49.558 417.464,41.2246 383.5,47C 373.453,49.456 364.12,53.456 355.5,59C 344.068,62.0842 332.734,65.4176 321.5,69C 311.57,76.9043 302.07,85.4043 293,94.5C 285.786,101.878 279.953,110.212 275.5,119.5C 274.034,120.347 273.2,121.68 273,123.5C 272.5,123 272,122.5 271.5,122C 271.283,119.807 271.616,117.473 272.5,115C 272.022,113.358 271.022,112.191 269.5,111.5C 260.73,103.902 252.063,96.0688 243.5,88C 237.21,85.1881 231.21,81.8548 225.5,78C 218.754,75.128 211.754,73.128 204.5,72C 190.203,70.464 175.87,70.1307 161.5,71C 149.009,73.0973 137.676,77.5973 127.5,84.5C 116.623,87.7758 105.623,90.6092 94.5,93C 80.201,101.955 67.3677,112.788 56,125.5C 35.8264,147.794 26.8264,174.128 29,204.5C 27.1685,217.483 25.6685,230.483 24.5,243.5C 25.4776,261.057 29.4776,277.723 36.5,293.5C 41.936,307.966 48.436,321.966 56,335.5C 70.8947,353.196 89.0614,366.362 110.5,375C 133.069,391.631 158.402,398.965 186.5,397C 197.239,394.649 207.905,391.982 218.5,389C 244.065,389.147 264.898,379.314 281,359.5C 289.686,347 298.853,335 308.5,323.5C 309.82,321.537 311.154,319.537 312.5,317.5C 313.404,316.791 313.737,315.791 313.5,314.5C 315.199,314.34 316.866,314.506 318.5,315C 324.042,317.459 329.708,319.626 335.5,321.5C 336.833,321.833 338.167,322.167 339.5,322.5C 339.953,323.458 340.619,324.292 341.5,325C 347.14,327.153 352.473,329.82 357.5,333C 365.171,336.664 373.171,339.498 381.5,341.5C 382.091,342.151 382.757,342.818 383.5,343.5C 393.812,344.499 404.145,344.832 414.5,344.5C 414.5,345.167 414.5,345.833 414.5,346.5C 394.719,348.841 375.719,346.008 357.5,338C 344.98,331.466 332.48,324.966 320,318.5C 317.151,321.574 314.317,324.574 311.5,327.5C 310.5,327.5 309.5,327.5 308.5,327.5C 308.5,328.5 308.5,329.5 308.5,330.5C 307.448,330.351 306.448,330.517 305.5,331C 306.711,332.113 306.711,333.28 305.5,334.5C 303.713,335.316 302.046,336.316 300.5,337.5C 296.013,345.499 290.179,352.499 283,358.5C 280.977,360.769 280.144,363.436 280.5,366.5C 277.043,366.96 275.377,368.96 275.5,372.5C 268.357,380.455 259.691,386.289 249.5,390C 226.746,393.631 204.08,397.631 181.5,402C 162.382,402.637 144.382,398.804 127.5,390.5C 111.895,382.028 96.2285,373.528 80.5,365C 76.88,361.533 72.88,358.7 68.5,356.5C 57.1521,347.471 48.8187,336.138 43.5,322.5C 41.616,316.402 38.9494,310.735 35.5,305.5C 28.2227,291.413 23.556,276.413 21.5,260.5C 21.0931,255.177 20.7598,249.844 20.5,244.5C 21.2617,235.837 21.9284,227.17 22.5,218.5C 22.5,218.167 22.5,217.833 22.5,217.5C 25.1042,202.869 26.4376,187.869 26.5,172.5C 26.3924,168.753 26.8924,165.086 28,161.5C 29.8546,156.054 32.3546,151.054 35.5,146.5C 50.0226,123.975 68.356,104.975 90.5,89.5C 99.0843,87.6913 107.418,85.358 115.5,82.5C 118.607,82.6488 121.607,82.1488 124.5,81C 130.191,77.7283 135.858,74.5616 141.5,71.5C 144.956,68.7925 148.956,67.4591 153.5,67.5C 163.441,66.1264 173.441,65.4598 183.5,65.5C 197.754,64.7646 211.42,67.2646 224.5,73C 231.553,76.5266 238.553,80.0266 245.5,83.5C 254.46,90.4579 263.127,97.7912 271.5,105.5C 271.858,107.701 273.192,109.035 275.5,109.5C 283.897,97.5455 293.563,86.7122 304.5,77C 306.579,75.3602 308.912,74.1936 311.5,73.5C 313.703,70.0704 316.37,67.0704 319.5,64.5C 326.207,62.261 332.873,60.261 339.5,58.5C 340.568,57.5655 341.901,57.2322 343.5,57.5C 346.216,57.3215 348.883,56.8215 351.5,56C 359.511,51.8251 367.511,47.9917 375.5,44.5C 398.532,39.5105 421.199,40.6771 443.5,48C 449.886,51.1932 456.22,54.3599 462.5,57.5 Z"/></g>
<g><path style="opacity:1" fill="#6a330f" d="M 160.5,90.5 C 165.118,91.3044 169.451,92.9711 173.5,95.5C 174.776,100.444 172.776,103.611 167.5,105C 158.721,106.888 155.221,103.388 157,94.5C 158.376,93.2949 159.542,91.9616 160.5,90.5 Z"/></g>
<g><path style="opacity:0.004" fill="#fefffe" d="M 239.5,77.5 C 240.833,78.1667 240.833,78.1667 239.5,77.5 Z"/></g>
<g><path style="opacity:1" fill="#df8e3b" d="M 247.5,107.5 C 245.394,104.89 243.06,102.39 240.5,100C 233.161,95.9905 225.828,91.9905 218.5,88C 207.528,84.7669 196.528,82.2669 185.5,80.5C 184.833,80.5 184.167,80.5 183.5,80.5C 170.85,78.5094 158.35,79.5094 146,83.5C 139.945,85.7793 134.111,88.446 128.5,91.5C 126.252,91.0017 124.252,90.0017 122.5,88.5C 123.729,87.7189 125.062,87.2189 126.5,87C 127.252,86.3292 127.586,85.4959 127.5,84.5C 129.527,84.6621 131.527,84.4955 133.5,84C 136.846,80.1653 140.846,79.3319 145.5,81.5C 145.561,79.4078 146.561,77.9078 148.5,77C 151,76.1667 153.5,75.3333 156,74.5C 156.772,74.6448 157.439,74.9781 158,75.5C 164.306,74.5018 170.64,73.5018 177,72.5C 182.368,72.9212 187.868,73.0879 193.5,73C 198.067,73.3459 202.4,74.5126 206.5,76.5C 207.554,76.3201 208.554,75.9867 209.5,75.5C 214.736,77.2809 220.069,78.7809 225.5,80C 230.5,83 235.5,86 240.5,89C 244.376,91.5391 244.376,93.8724 240.5,96C 243.877,96.4517 247.211,97.1184 250.5,98C 263.465,105.537 262.465,108.704 247.5,107.5 Z"/></g>
<g><path style="opacity:1" fill="#eea746" d="M 391.5,55.5 C 395.981,54.3516 400.648,54.1849 405.5,55C 411.58,56.718 417.58,58.218 423.5,59.5C 421.08,59.2924 418.747,59.6258 416.5,60.5C 413.404,58.6553 410.238,57.9886 407,58.5C 406.161,59.6241 404.994,60.2908 403.5,60.5C 400.29,59.0558 396.957,58.5558 393.5,59C 391.998,59.5831 390.665,60.4164 389.5,61.5C 396.268,62.0302 402.102,63.3636 407,65.5C 407.667,68.8333 407.667,72.1667 407,75.5C 405.899,77.3939 404.566,78.0606 403,77.5C 397.75,79.8607 392.25,81.8607 386.5,83.5C 384.077,82.2882 383.077,80.2882 383.5,77.5C 382.417,77.4606 381.417,77.1272 380.5,76.5C 378.998,72.2901 379.331,68.2901 381.5,64.5C 379.235,63.3526 376.902,63.1859 374.5,64C 373.027,64.7096 372.36,65.8762 372.5,67.5C 368.092,67.062 366.425,69.062 367.5,73.5C 366.022,73.238 364.689,73.5713 363.5,74.5C 364.025,75.1924 364.692,75.6924 365.5,76C 368.192,76.4298 370.859,76.2631 373.5,75.5C 373.095,78.9865 372.095,82.3199 370.5,85.5C 367.451,87.466 364.118,87.966 360.5,87C 357.934,83.9775 358.268,81.1441 361.5,78.5C 356.487,73.9382 351.32,73.6049 346,77.5C 341.164,77.346 337.33,79.5126 334.5,84C 338.633,83.9064 342.299,84.7397 345.5,86.5C 339.075,86.1304 332.742,86.6304 326.5,88C 324.523,90.0429 323.523,92.5429 323.5,95.5C 322.532,93.3926 322.198,91.0593 322.5,88.5C 321.167,88.5 319.833,88.5 318.5,88.5C 330.509,79.1711 344.176,73.0044 359.5,70C 372.609,60.832 387.275,56.1653 403.5,56C 399.514,55.5012 395.514,55.3345 391.5,55.5 Z"/></g>
<g><path style="opacity:1" fill="#693310" d="M 383.5,77.5 C 379.6,68.7654 382.267,64.7654 391.5,65.5C 400.772,69.5992 400.772,73.7659 391.5,78C 388.739,78.7218 386.073,78.5552 383.5,77.5 Z"/></g>
<g><path style="opacity:1" fill="#612e0a" d="M 410.5,307.5 C 418.836,302.826 426.336,304.159 433,311.5C 433.667,313.167 433.667,314.833 433,316.5C 428.007,321.052 422.174,323.219 415.5,323C 409.783,319.224 408.117,314.057 410.5,307.5 Z"/></g>
<g><path style="opacity:0.098" fill="#cfb07b" d="M 35.5,305.5 C 38.9494,310.735 41.616,316.402 43.5,322.5C 40.0612,317.285 37.3945,311.618 35.5,305.5 Z"/></g>
<g><path style="opacity:1" fill="#824422" d="M 416.5,306.5 C 420.082,307.249 423.416,308.582 426.5,310.5C 427.231,312.401 427.231,314.401 426.5,316.5C 423.479,317.005 420.479,317.672 417.5,318.5C 412.987,318.105 411.487,315.771 413,311.5C 413.997,309.677 415.164,308.01 416.5,306.5 Z"/></g>
<g><path style="opacity:0.749" fill="#97713b" d="M 509.5,299.5 C 499.489,315.346 486.155,327.513 469.5,336C 451.119,339.31 432.786,342.81 414.5,346.5C 414.5,345.833 414.5,345.167 414.5,344.5C 431.271,338.477 448.604,335.31 466.5,335C 469.823,332.286 473.49,330.119 477.5,328.5C 478.262,327.372 478.929,326.205 479.5,325C 483.194,323.802 486.528,321.968 489.5,319.5C 493.169,314.213 497.335,309.213 502,304.5C 502.333,304.833 502.667,305.167 503,305.5C 505.039,304.022 505.872,302.022 505.5,299.5C 506.833,299.5 508.167,299.5 509.5,299.5 Z"/></g>
<g><path style="opacity:0.004" fill="#fefffe" d="M 493.5,330.5 C 494.833,331.167 494.833,331.167 493.5,330.5 Z"/></g>
<g><path style="opacity:0.004" fill="#fefffe" d="M 518.5,338.5 C 519.833,339.167 519.833,339.167 518.5,338.5 Z"/></g>
<g><path style="opacity:0.686" fill="#9c753f" d="M 311.5,327.5 C 305.178,337.459 298.344,347.126 291,356.5C 286.056,362.058 280.89,367.392 275.5,372.5C 275.377,368.96 277.043,366.96 280.5,366.5C 280.144,363.436 280.977,360.769 283,358.5C 290.179,352.499 296.013,345.499 300.5,337.5C 302.046,336.316 303.713,335.316 305.5,334.5C 306.711,333.28 306.711,332.113 305.5,331C 306.448,330.517 307.448,330.351 308.5,330.5C 308.5,329.5 308.5,328.5 308.5,327.5C 309.5,327.5 310.5,327.5 311.5,327.5 Z"/></g>
<g><path style="opacity:0.004" fill="#fefffe" d="M 492.5,352.5 C 493.833,353.167 493.833,353.167 492.5,352.5 Z"/></g>
<g><path style="opacity:0.004" fill="#fefffe" d="M 17.5,356.5 C 18.8333,357.167 18.8333,357.167 17.5,356.5 Z"/></g>
<g><path style="opacity:0.063" fill="#c2a475" d="M 68.5,356.5 C 72.88,358.7 76.88,361.533 80.5,365C 96.2285,373.528 111.895,382.028 127.5,390.5C 105.58,382.88 85.9135,371.547 68.5,356.5 Z"/></g>
<g><path style="opacity:0.004" fill="#fefffe" d="M 314.5,374.5 C 315.833,375.167 315.833,375.167 314.5,374.5 Z"/></g>
<g><path style="opacity:0.004" fill="#fefffe" d="M 310.5,378.5 C 311.833,379.167 311.833,379.167 310.5,378.5 Z"/></g>
<g><path style="opacity:1" fill="#de8e3c" d="M 37.5,217.5 C 38.7773,218.694 39.4439,220.36 39.5,222.5C 37.6934,230.06 36.6934,237.727 36.5,245.5C 40.2092,278.184 51.2092,308.017 69.5,335C 76.4878,341.649 83.8211,347.982 91.5,354C 96.0082,356.391 100.675,358.391 105.5,360C 106.257,361.512 107.257,362.846 108.5,364C 116.924,367.076 124.924,371.076 132.5,376C 137.909,378.175 143.242,380.342 148.5,382.5C 152.101,383.491 155.768,384.658 159.5,386C 170.167,386.667 180.833,386.667 191.5,386C 207.788,381.208 224.455,377.874 241.5,376C 245.017,373.243 249.017,371.577 253.5,371C 260.006,365.658 266.34,360.158 272.5,354.5C 278.031,346.12 284.197,338.12 291,330.5C 291.483,329.552 291.649,328.552 291.5,327.5C 292.822,327.67 293.989,327.337 295,326.5C 296.312,322.736 298.146,319.403 300.5,316.5C 303.239,318.851 305.905,321.184 308.5,323.5C 298.853,335 289.686,347 281,359.5C 264.898,379.314 244.065,389.147 218.5,389C 207.905,391.982 197.239,394.649 186.5,397C 158.402,398.965 133.069,391.631 110.5,375C 89.0614,366.362 70.8947,353.196 56,335.5C 48.436,321.966 41.936,307.966 36.5,293.5C 36.3572,287.75 34.8572,282.417 32,277.5C 31.6667,272.833 31.3333,268.167 31,263.5C 30.0645,260.066 28.3978,257.066 26,254.5C 25.8333,252.333 25.6667,250.167 25.5,248C 29.1041,223.993 31.6041,199.826 33,175.5C 33.4226,174.044 34.2559,173.544 35.5,174C 36.1159,175.4 36.4493,176.9 36.5,178.5C 33.969,191.064 33.469,203.731 35,216.5C 35.3333,216.167 35.6667,215.833 36,215.5C 36.2784,216.416 36.7784,217.082 37.5,217.5 Z"/></g>
<g><path style="opacity:1" fill="#df9b4e" d="M 213.5,359.5 C 214.736,363.186 214.569,366.852 213,370.5C 206.865,375.9 199.699,377.9 191.5,376.5C 189.897,375.404 188.397,374.07 187,372.5C 186.667,372.833 186.333,373.167 186,373.5C 182.682,365.453 184.182,358.62 190.5,353C 198.759,352.78 206.425,354.947 213.5,359.5 Z"/></g>
<g><path style="opacity:1" fill="#d9984e" d="M 103.5,345.5 C 104.165,353.664 108.665,357.997 117,358.5C 122.876,357.537 127.876,354.87 132,350.5C 132.667,348.833 132.667,347.167 132,345.5C 128.304,342.061 124.137,339.228 119.5,337C 116.021,336.434 113.355,337.767 111.5,341C 109.593,342.122 107.593,342.955 105.5,343.5C 105.859,341.629 106.859,340.129 108.5,339C 110.725,338.439 112.725,337.439 114.5,336C 119.805,335.723 124.972,336.556 130,338.5C 134.26,342.583 135.593,347.583 134,353.5C 127.328,358.611 119.828,360.444 111.5,359C 108.052,357.53 104.886,355.697 102,353.5C 101.833,352.167 101.667,350.833 101.5,349.5C 101.585,347.667 102.252,346.334 103.5,345.5 Z"/></g>
<g><path style="opacity:1" fill="#602d09" d="M 191.5,354.5 C 199.177,354.458 206.011,356.792 212,361.5C 212.667,363.5 212.667,365.5 212,367.5C 206.294,373.272 199.461,375.438 191.5,374C 186.198,367.471 186.198,360.971 191.5,354.5 Z"/></g>
<g><path style="opacity:1" fill="#804520" d="M 193.5,356.5 C 198.775,356.868 203.441,358.701 207.5,362C 206.5,365.667 204.167,368 200.5,369C 191.333,371.833 188.167,368.667 191,359.5C 192.045,358.627 192.878,357.627 193.5,356.5 Z"/></g>
<g><path style="opacity:1" fill="#64320f" d="M 103.5,345.5 C 103.833,344.5 104.5,343.833 105.5,343.5C 107.593,342.955 109.593,342.122 111.5,341C 113.355,337.767 116.021,336.434 119.5,337C 124.137,339.228 128.304,342.061 132,345.5C 132.667,347.167 132.667,348.833 132,350.5C 127.876,354.87 122.876,357.537 117,358.5C 108.665,357.997 104.165,353.664 103.5,345.5 Z"/></g>
<g><path style="opacity:1" fill="#824825" d="M 117.5,339.5 C 128.442,344.606 128.108,349.106 116.5,353C 109.922,354.563 106.589,352.063 106.5,345.5C 111.206,345.315 114.873,343.315 117.5,339.5 Z"/></g>
<g><path style="opacity:1" fill="#cb8945" d="M 273.5,319.5 C 272.162,317.887 270.495,317.387 268.5,318C 263.459,323.036 257.459,326.369 250.5,328C 246.218,330.739 245.552,334.073 248.5,338C 255.167,338.667 261.833,338.667 268.5,338C 269.984,337.338 271.317,336.504 272.5,335.5C 272.494,337.844 271.327,339.178 269,339.5C 262.193,340.572 255.36,340.739 248.5,340C 243.37,335.95 243.37,331.784 248.5,327.5C 251.717,326.028 255.051,324.862 258.5,324C 261.167,321.667 263.833,319.333 266.5,317C 268.5,316.333 270.5,316.333 272.5,317C 273.252,317.671 273.586,318.504 273.5,319.5 Z"/></g>
<g><path style="opacity:1" fill="#602c07" d="M 273.5,319.5 C 273.821,325.026 273.488,330.36 272.5,335.5C 271.317,336.504 269.984,337.338 268.5,338C 261.833,338.667 255.167,338.667 248.5,338C 245.552,334.073 246.218,330.739 250.5,328C 257.459,326.369 263.459,323.036 268.5,318C 270.495,317.387 272.162,317.887 273.5,319.5 Z"/></g>
<g><path style="opacity:1" fill="#7e4422" d="M 269.5,320.5 C 270.88,320.962 271.547,321.962 271.5,323.5C 269.756,326.97 268.756,330.637 268.5,334.5C 262.211,335.372 255.878,335.705 249.5,335.5C 249.33,334.178 249.663,333.011 250.5,332C 254.126,329.472 258.126,327.805 262.5,327C 264.729,324.6 267.063,322.433 269.5,320.5 Z"/></g>
<g><path style="opacity:0.004" fill="#fefffe" d="M 90.5,391.5 C 91.8333,392.167 91.8333,392.167 90.5,391.5 Z"/></g>
<g><path style="opacity:0.004" fill="#fefffe" d="M 390.5,391.5 C 391.833,392.167 391.833,392.167 390.5,391.5 Z"/></g>
<g><path style="opacity:0.004" fill="#fefffe" d="M 446.5,392.5 C 447.833,393.167 447.833,393.167 446.5,392.5 Z"/></g>
<g><path style="opacity:0.004" fill="#fefffe" d="M 242.5,404.5 C 243.833,405.167 243.833,405.167 242.5,404.5 Z"/></g>
<g><path style="opacity:0.004" fill="#fefffe" d="M 565.5,411.5 C 566.833,412.167 566.833,412.167 565.5,411.5 Z"/></g>
<g><path style="opacity:0.004" fill="#fefffe" d="M 181.5,414.5 C 182.833,415.167 182.833,415.167 181.5,414.5 Z"/></g>
<g><path style="opacity:0.004" fill="#fefffe" d="M 550.5,417.5 C 551.833,418.167 551.833,418.167 550.5,417.5 Z"/></g>
<g><path style="opacity:0.004" fill="#fefffe" d="M 93.5,421.5 C 94.8333,422.167 94.8333,422.167 93.5,421.5 Z"/></g>
<g><path style="opacity:0.004" fill="#fefffe" d="M 96.5,421.5 C 97.8333,422.167 97.8333,422.167 96.5,421.5 Z"/></g>
<g><path style="opacity:0.004" fill="#fefffe" d="M 307.5,429.5 C 308.833,430.167 308.833,430.167 307.5,429.5 Z"/></g>
</svg>
